<?xml version="1.0" encoding="UTF-8" standalone="no"?>
<!DOCTYPE svg PUBLIC "-//W3C//DTD SVG 1.1//EN"
 "http://www.w3.org/Graphics/SVG/1.1/DTD/svg11.dtd">
<!-- Generated by graphviz version 2.43.0 (0)
 -->
<!-- Title: fiftyone.ipintelligence.cloud.data.MultiIPIDataCloud Pages: 1 -->
<svg width="375pt" height="88pt"
 viewBox="0.00 0.00 375.00 88.00" xmlns="http://www.w3.org/2000/svg" xmlns:xlink="http://www.w3.org/1999/xlink">
<g id="graph0" class="graph" transform="scale(1 1) rotate(0) translate(4 84)">
<title>fiftyone.ipintelligence.cloud.data.MultiIPIDataCloud</title>
<!-- Node0 -->
<g id="node1" class="node">
<title>Node0</title>
<g id="a_node1"><a xlink:title="Encapsulates a list of IPIntelligenceData instances which can be returned by the 51Degrees Cloud serv...">
<polygon fill="#bfbfbf" stroke="black" points="188,-30 188,-60 367,-60 367,-30 188,-30"/>
<text text-anchor="start" x="196" y="-48" font-family="Helvetica,sans-Serif" font-size="10.00">fiftyone.ipintelligence.cloud.data.</text>
<text text-anchor="middle" x="277.5" y="-37" font-family="Helvetica,sans-Serif" font-size="10.00">MultiIPIDataCloud</text>
</a>
</g>
</g>
<!-- Node1 -->
<g id="node2" class="node">
<title>Node1</title>
<g id="a_node2"><a xlink:title=" ">
<polygon fill="none" stroke="#bfbfbf" points="27.5,-60.5 27.5,-79.5 124.5,-79.5 124.5,-60.5 27.5,-60.5"/>
<text text-anchor="middle" x="76" y="-67.5" font-family="Helvetica,sans-Serif" font-size="10.00">AspectDataBase</text>
</a>
</g>
</g>
<!-- Node1&#45;&gt;Node0 -->
<g id="edge1" class="edge">
<title>Node1&#45;&gt;Node0</title>
<path fill="none" stroke="midnightblue" d="M134.63,-62.78C151.28,-60.69 169.84,-58.37 187.91,-56.1"/>
<polygon fill="midnightblue" stroke="midnightblue" points="134.02,-59.33 124.53,-64.04 134.89,-66.27 134.02,-59.33"/>
</g>
<!-- Node2 -->
<g id="node3" class="node">
<title>Node2</title>
<g id="a_node3"><a xlink:title=" ">
<polygon fill="none" stroke="#bfbfbf" points="0,-0.5 0,-41.5 152,-41.5 152,-0.5 0,-0.5"/>
<text text-anchor="start" x="8" y="-29.5" font-family="Helvetica,sans-Serif" font-size="10.00">fiftyone::pipeline</text>
<text text-anchor="start" x="8" y="-18.5" font-family="Helvetica,sans-Serif" font-size="10.00">::engines::data::MultiProfile</text>
<text text-anchor="middle" x="76" y="-7.5" font-family="Helvetica,sans-Serif" font-size="10.00">Data&lt; IPIntelligenceData &gt;</text>
</a>
</g>
</g>
<!-- Node2&#45;&gt;Node0 -->
<g id="edge2" class="edge">
<title>Node2&#45;&gt;Node0</title>
<path fill="none" stroke="midnightblue" d="M162.3,-31.26C170.7,-32.27 179.24,-33.3 187.67,-34.31"/>
<polygon fill="midnightblue" stroke="midnightblue" points="162.48,-27.76 152.14,-30.04 161.65,-34.71 162.48,-27.76"/>
</g>
</g>
</svg>
