<?xml version="1.0" encoding="UTF-8" standalone="no"?>
<!DOCTYPE svg PUBLIC "-//W3C//DTD SVG 1.1//EN"
 "http://www.w3.org/Graphics/SVG/1.1/DTD/svg11.dtd">
<!-- Generated by graphviz version 2.43.0 (0)
 -->
<!-- Title: fiftyone.ipintelligence.engine.onpremise.interop.swig.WeightedDoubleListSwig Pages: 1 -->
<svg width="393pt" height="106pt"
 viewBox="0.00 0.00 392.50 106.00" xmlns="http://www.w3.org/2000/svg" xmlns:xlink="http://www.w3.org/1999/xlink">
<g id="graph0" class="graph" transform="scale(1 1) rotate(0) translate(4 102)">
<title>fiftyone.ipintelligence.engine.onpremise.interop.swig.WeightedDoubleListSwig</title>
<!-- Node4 -->
<g id="node1" class="node">
<title>Node4</title>
<g id="a_node1"><a xlink:title=" ">
<polygon fill="#bfbfbf" stroke="black" points="92.5,-0.5 92.5,-30.5 371.5,-30.5 371.5,-0.5 92.5,-0.5"/>
<text text-anchor="start" x="100.5" y="-18.5" font-family="Helvetica,sans-Serif" font-size="10.00">fiftyone.ipintelligence.engine.onpremise.interop.swig.</text>
<text text-anchor="middle" x="232" y="-7.5" font-family="Helvetica,sans-Serif" font-size="10.00">WeightedDoubleListSwig</text>
</a>
</g>
</g>
<!-- Node5 -->
<g id="node2" class="node">
<title>Node5</title>
<g id="a_node2"><a xlink:title=" ">
<polygon fill="none" stroke="#bfbfbf" points="0,-67.5 0,-97.5 170,-97.5 170,-67.5 0,-67.5"/>
<text text-anchor="start" x="8" y="-85.5" font-family="Helvetica,sans-Serif" font-size="10.00">java::util::AbstractList</text>
<text text-anchor="middle" x="85" y="-74.5" font-family="Helvetica,sans-Serif" font-size="10.00">&lt; WeightedValueDoubleSwig &gt;</text>
</a>
</g>
</g>
<!-- Node5&#45;&gt;Node4 -->
<g id="edge1" class="edge">
<title>Node5&#45;&gt;Node4</title>
<path fill="none" stroke="midnightblue" d="M126.23,-63.27C149.64,-52.92 178.51,-40.15 200.17,-30.58"/>
<polygon fill="midnightblue" stroke="midnightblue" points="124.63,-60.15 116.9,-67.4 127.46,-66.55 124.63,-60.15"/>
</g>
<!-- Node6 -->
<g id="node3" class="node">
<title>Node6</title>
<g id="a_node3"><a xlink:title=" ">
<polygon fill="none" stroke="#bfbfbf" points="188.5,-73 188.5,-92 275.5,-92 275.5,-73 188.5,-73"/>
<text text-anchor="middle" x="232" y="-80" font-family="Helvetica,sans-Serif" font-size="10.00">AutoCloseable</text>
</a>
</g>
</g>
<!-- Node6&#45;&gt;Node4 -->
<g id="edge2" class="edge">
<title>Node6&#45;&gt;Node4</title>
<path fill="none" stroke="midnightblue" d="M232,-62.41C232,-52.22 232,-39.9 232,-30.59"/>
<polygon fill="midnightblue" stroke="midnightblue" points="228.5,-62.73 232,-72.73 235.5,-62.73 228.5,-62.73"/>
</g>
<!-- Node7 -->
<g id="node4" class="node">
<title>Node7</title>
<g id="a_node4"><a xlink:title=" ">
<polygon fill="none" stroke="#bfbfbf" points="293.5,-73 293.5,-92 384.5,-92 384.5,-73 293.5,-73"/>
<text text-anchor="middle" x="339" y="-80" font-family="Helvetica,sans-Serif" font-size="10.00">RandomAccess</text>
</a>
</g>
</g>
<!-- Node7&#45;&gt;Node4 -->
<g id="edge3" class="edge">
<title>Node7&#45;&gt;Node4</title>
<path fill="none" stroke="midnightblue" d="M315.88,-67.45C297.93,-56.55 273.16,-41.5 255.19,-30.59"/>
<polygon fill="midnightblue" stroke="midnightblue" points="314.21,-70.53 324.57,-72.73 317.84,-64.55 314.21,-70.53"/>
</g>
</g>
</svg>
