<?xml version="1.0" encoding="UTF-8" standalone="no"?>
<!DOCTYPE svg PUBLIC "-//W3C//DTD SVG 1.1//EN"
 "http://www.w3.org/Graphics/SVG/1.1/DTD/svg11.dtd">
<!-- Generated by graphviz version 2.43.0 (0)
 -->
<!-- Title: fiftyone.ipintelligence.engine.onpremise.interop.swig.WeightedIntListSwig Pages: 1 -->
<svg width="371pt" height="106pt"
 viewBox="0.00 0.00 370.50 106.00" xmlns="http://www.w3.org/2000/svg" xmlns:xlink="http://www.w3.org/1999/xlink">
<g id="graph0" class="graph" transform="scale(1 1) rotate(0) translate(4 102)">
<title>fiftyone.ipintelligence.engine.onpremise.interop.swig.WeightedIntListSwig</title>
<!-- Node4 -->
<g id="node1" class="node">
<title>Node4</title>
<g id="a_node1"><a xlink:title=" ">
<polygon fill="#bfbfbf" stroke="black" points="70.5,-0.5 70.5,-30.5 349.5,-30.5 349.5,-0.5 70.5,-0.5"/>
<text text-anchor="start" x="78.5" y="-18.5" font-family="Helvetica,sans-Serif" font-size="10.00">fiftyone.ipintelligence.engine.onpremise.interop.swig.</text>
<text text-anchor="middle" x="210" y="-7.5" font-family="Helvetica,sans-Serif" font-size="10.00">WeightedIntListSwig</text>
</a>
</g>
</g>
<!-- Node5 -->
<g id="node2" class="node">
<title>Node5</title>
<g id="a_node2"><a xlink:title=" ">
<polygon fill="none" stroke="#bfbfbf" points="0,-67.5 0,-97.5 148,-97.5 148,-67.5 0,-67.5"/>
<text text-anchor="start" x="8" y="-85.5" font-family="Helvetica,sans-Serif" font-size="10.00">java::util::AbstractList</text>
<text text-anchor="middle" x="74" y="-74.5" font-family="Helvetica,sans-Serif" font-size="10.00">&lt; WeightedValueIntSwig &gt;</text>
</a>
</g>
</g>
<!-- Node5&#45;&gt;Node4 -->
<g id="edge1" class="edge">
<title>Node5&#45;&gt;Node4</title>
<path fill="none" stroke="midnightblue" d="M112.72,-62.99C134.28,-52.69 160.69,-40.07 180.55,-30.58"/>
<polygon fill="midnightblue" stroke="midnightblue" points="111.02,-59.93 103.51,-67.4 114.04,-66.24 111.02,-59.93"/>
</g>
<!-- Node6 -->
<g id="node3" class="node">
<title>Node6</title>
<g id="a_node3"><a xlink:title=" ">
<polygon fill="none" stroke="#bfbfbf" points="166.5,-73 166.5,-92 253.5,-92 253.5,-73 166.5,-73"/>
<text text-anchor="middle" x="210" y="-80" font-family="Helvetica,sans-Serif" font-size="10.00">AutoCloseable</text>
</a>
</g>
</g>
<!-- Node6&#45;&gt;Node4 -->
<g id="edge2" class="edge">
<title>Node6&#45;&gt;Node4</title>
<path fill="none" stroke="midnightblue" d="M210,-62.41C210,-52.22 210,-39.9 210,-30.59"/>
<polygon fill="midnightblue" stroke="midnightblue" points="206.5,-62.73 210,-72.73 213.5,-62.73 206.5,-62.73"/>
</g>
<!-- Node7 -->
<g id="node4" class="node">
<title>Node7</title>
<g id="a_node4"><a xlink:title=" ">
<polygon fill="none" stroke="#bfbfbf" points="271.5,-73 271.5,-92 362.5,-92 362.5,-73 271.5,-73"/>
<text text-anchor="middle" x="317" y="-80" font-family="Helvetica,sans-Serif" font-size="10.00">RandomAccess</text>
</a>
</g>
</g>
<!-- Node7&#45;&gt;Node4 -->
<g id="edge3" class="edge">
<title>Node7&#45;&gt;Node4</title>
<path fill="none" stroke="midnightblue" d="M293.88,-67.45C275.93,-56.55 251.16,-41.5 233.19,-30.59"/>
<polygon fill="midnightblue" stroke="midnightblue" points="292.21,-70.53 302.57,-72.73 295.84,-64.55 292.21,-70.53"/>
</g>
</g>
</svg>
