<?xml version="1.0" encoding="UTF-8" standalone="no"?>
<!DOCTYPE svg PUBLIC "-//W3C//DTD SVG 1.1//EN"
 "http://www.w3.org/Graphics/SVG/1.1/DTD/svg11.dtd">
<!-- Generated by graphviz version 2.43.0 (0)
 -->
<!-- Title: fiftyone.ipintelligence.engine.onpremise.interop.swig.EvidenceIpiSwig Pages: 1 -->
<svg width="1080pt" height="78pt"
 viewBox="0.00 0.00 1080.00 77.50" xmlns="http://www.w3.org/2000/svg" xmlns:xlink="http://www.w3.org/1999/xlink">
<g id="graph0" class="graph" transform="scale(1 1) rotate(0) translate(4 73.5)">
<title>fiftyone.ipintelligence.engine.onpremise.interop.swig.EvidenceIpiSwig</title>
<!-- Node5 -->
<g id="node1" class="node">
<title>Node5</title>
<g id="a_node1"><a xlink:title=" ">
<polygon fill="#bfbfbf" stroke="black" points="793,-17 793,-47 1072,-47 1072,-17 793,-17"/>
<text text-anchor="start" x="801" y="-35" font-family="Helvetica,sans-Serif" font-size="10.00">fiftyone.ipintelligence.engine.onpremise.interop.swig.</text>
<text text-anchor="middle" x="932.5" y="-24" font-family="Helvetica,sans-Serif" font-size="10.00">EvidenceIpiSwig</text>
</a>
</g>
</g>
<!-- Node6 -->
<g id="node2" class="node">
<title>Node6</title>
<g id="a_node2"><a xlink:href="classfiftyone_1_1ipintelligence_1_1engine_1_1onpremise_1_1interop_1_1swig_1_1_evidence_base_swig.html" target="_top" xlink:title=" ">
<polygon fill="none" stroke="black" points="478,-17 478,-47 757,-47 757,-17 478,-17"/>
<text text-anchor="start" x="486" y="-35" font-family="Helvetica,sans-Serif" font-size="10.00">fiftyone.ipintelligence.engine.onpremise.interop.swig.</text>
<text text-anchor="middle" x="617.5" y="-24" font-family="Helvetica,sans-Serif" font-size="10.00">EvidenceBaseSwig</text>
</a>
</g>
</g>
<!-- Node6&#45;&gt;Node5 -->
<g id="edge1" class="edge">
<title>Node6&#45;&gt;Node5</title>
<path fill="none" stroke="midnightblue" d="M767.39,-32C775.8,-32 784.24,-32 792.61,-32"/>
<polygon fill="midnightblue" stroke="midnightblue" points="767.15,-28.5 757.15,-32 767.15,-35.5 767.15,-28.5"/>
</g>
<!-- Node7 -->
<g id="node3" class="node">
<title>Node7</title>
<g id="a_node3"><a xlink:href="classfiftyone_1_1ipintelligence_1_1engine_1_1onpremise_1_1interop_1_1swig_1_1_map_string_string_swig.html" target="_top" xlink:title=" ">
<polygon fill="none" stroke="black" points="163,-39 163,-69 442,-69 442,-39 163,-39"/>
<text text-anchor="start" x="171" y="-57" font-family="Helvetica,sans-Serif" font-size="10.00">fiftyone.ipintelligence.engine.onpremise.interop.swig.</text>
<text text-anchor="middle" x="302.5" y="-46" font-family="Helvetica,sans-Serif" font-size="10.00">MapStringStringSwig</text>
</a>
</g>
</g>
<!-- Node7&#45;&gt;Node6 -->
<g id="edge2" class="edge">
<title>Node7&#45;&gt;Node6</title>
<path fill="none" stroke="midnightblue" d="M452.39,-43.53C460.8,-42.94 469.24,-42.35 477.61,-41.76"/>
<polygon fill="midnightblue" stroke="midnightblue" points="451.88,-40.06 442.15,-44.25 452.37,-47.04 451.88,-40.06"/>
</g>
<!-- Node8 -->
<g id="node4" class="node">
<title>Node8</title>
<g id="a_node4"><a xlink:title=" ">
<polygon fill="none" stroke="#bfbfbf" points="0,-39 0,-69 127,-69 127,-39 0,-39"/>
<text text-anchor="start" x="8" y="-57" font-family="Helvetica,sans-Serif" font-size="10.00">java::util::AbstractMap</text>
<text text-anchor="middle" x="63.5" y="-46" font-family="Helvetica,sans-Serif" font-size="10.00">&lt; String, String &gt;</text>
</a>
</g>
</g>
<!-- Node8&#45;&gt;Node7 -->
<g id="edge3" class="edge">
<title>Node8&#45;&gt;Node7</title>
<path fill="none" stroke="midnightblue" d="M137.31,-54C145.55,-54 154.13,-54 162.86,-54"/>
<polygon fill="midnightblue" stroke="midnightblue" points="137.08,-50.5 127.08,-54 137.08,-57.5 137.08,-50.5"/>
</g>
<!-- Node9 -->
<g id="node5" class="node">
<title>Node9</title>
<g id="a_node5"><a xlink:title=" ">
<polygon fill="none" stroke="#bfbfbf" points="20,-0.5 20,-19.5 107,-19.5 107,-0.5 20,-0.5"/>
<text text-anchor="middle" x="63.5" y="-7.5" font-family="Helvetica,sans-Serif" font-size="10.00">AutoCloseable</text>
</a>
</g>
</g>
<!-- Node9&#45;&gt;Node6 -->
<g id="edge5" class="edge">
<title>Node9&#45;&gt;Node6</title>
<path fill="none" stroke="midnightblue" d="M117.47,-12.11C199.75,-15.39 360.97,-21.82 477.95,-26.48"/>
<polygon fill="midnightblue" stroke="midnightblue" points="117.49,-8.61 107.36,-11.71 117.21,-15.6 117.49,-8.61"/>
</g>
<!-- Node9&#45;&gt;Node7 -->
<g id="edge4" class="edge">
<title>Node9&#45;&gt;Node7</title>
<path fill="none" stroke="midnightblue" d="M117.09,-19.76C147.42,-25.4 186.21,-32.6 220.38,-38.94"/>
<polygon fill="midnightblue" stroke="midnightblue" points="117.62,-16.3 107.14,-17.92 116.34,-23.18 117.62,-16.3"/>
</g>
</g>
</svg>
