<?xml version="1.0" encoding="UTF-8" standalone="no"?>
<!DOCTYPE svg PUBLIC "-//W3C//DTD SVG 1.1//EN"
 "http://www.w3.org/Graphics/SVG/1.1/DTD/svg11.dtd">
<!-- Generated by graphviz version 2.43.0 (0)
 -->
<!-- Title: fiftyone.ipintelligence.engine.onpremise.interop.swig.WeightedBoolListSwig Pages: 1 -->
<svg width="379pt" height="106pt"
 viewBox="0.00 0.00 379.00 106.00" xmlns="http://www.w3.org/2000/svg" xmlns:xlink="http://www.w3.org/1999/xlink">
<g id="graph0" class="graph" transform="scale(1 1) rotate(0) translate(4 102)">
<title>fiftyone.ipintelligence.engine.onpremise.interop.swig.WeightedBoolListSwig</title>
<!-- Node4 -->
<g id="node1" class="node">
<title>Node4</title>
<g id="a_node1"><a xlink:title=" ">
<polygon fill="#bfbfbf" stroke="black" points="79,-0.5 79,-30.5 358,-30.5 358,-0.5 79,-0.5"/>
<text text-anchor="start" x="87" y="-18.5" font-family="Helvetica,sans-Serif" font-size="10.00">fiftyone.ipintelligence.engine.onpremise.interop.swig.</text>
<text text-anchor="middle" x="218.5" y="-7.5" font-family="Helvetica,sans-Serif" font-size="10.00">WeightedBoolListSwig</text>
</a>
</g>
</g>
<!-- Node5 -->
<g id="node2" class="node">
<title>Node5</title>
<g id="a_node2"><a xlink:title=" ">
<polygon fill="none" stroke="#bfbfbf" points="0,-67.5 0,-97.5 157,-97.5 157,-67.5 0,-67.5"/>
<text text-anchor="start" x="8" y="-85.5" font-family="Helvetica,sans-Serif" font-size="10.00">java::util::AbstractList</text>
<text text-anchor="middle" x="78.5" y="-74.5" font-family="Helvetica,sans-Serif" font-size="10.00">&lt; WeightedValueBoolSwig &gt;</text>
</a>
</g>
</g>
<!-- Node5&#45;&gt;Node4 -->
<g id="edge1" class="edge">
<title>Node5&#45;&gt;Node4</title>
<path fill="none" stroke="midnightblue" d="M118.07,-63.13C140.31,-52.8 167.65,-40.11 188.18,-30.58"/>
<polygon fill="midnightblue" stroke="midnightblue" points="116.47,-60.01 108.88,-67.4 119.42,-66.36 116.47,-60.01"/>
</g>
<!-- Node6 -->
<g id="node3" class="node">
<title>Node6</title>
<g id="a_node3"><a xlink:title=" ">
<polygon fill="none" stroke="#bfbfbf" points="175,-73 175,-92 262,-92 262,-73 175,-73"/>
<text text-anchor="middle" x="218.5" y="-80" font-family="Helvetica,sans-Serif" font-size="10.00">AutoCloseable</text>
</a>
</g>
</g>
<!-- Node6&#45;&gt;Node4 -->
<g id="edge2" class="edge">
<title>Node6&#45;&gt;Node4</title>
<path fill="none" stroke="midnightblue" d="M218.5,-62.41C218.5,-52.22 218.5,-39.9 218.5,-30.59"/>
<polygon fill="midnightblue" stroke="midnightblue" points="215,-62.73 218.5,-72.73 222,-62.73 215,-62.73"/>
</g>
<!-- Node7 -->
<g id="node4" class="node">
<title>Node7</title>
<g id="a_node4"><a xlink:title=" ">
<polygon fill="none" stroke="#bfbfbf" points="280,-73 280,-92 371,-92 371,-73 280,-73"/>
<text text-anchor="middle" x="325.5" y="-80" font-family="Helvetica,sans-Serif" font-size="10.00">RandomAccess</text>
</a>
</g>
</g>
<!-- Node7&#45;&gt;Node4 -->
<g id="edge3" class="edge">
<title>Node7&#45;&gt;Node4</title>
<path fill="none" stroke="midnightblue" d="M302.38,-67.45C284.43,-56.55 259.66,-41.5 241.69,-30.59"/>
<polygon fill="midnightblue" stroke="midnightblue" points="300.71,-70.53 311.07,-72.73 304.34,-64.55 300.71,-70.53"/>
</g>
</g>
</svg>
