<?xml version="1.0" encoding="UTF-8" standalone="no"?>
<!DOCTYPE svg PUBLIC "-//W3C//DTD SVG 1.1//EN"
 "http://www.w3.org/Graphics/SVG/1.1/DTD/svg11.dtd">
<!-- Generated by graphviz version 2.43.0 (0)
 -->
<!-- Title: fiftyone.ipintelligence.cloud.data.IPIntelligenceDataCloud Pages: 1 -->
<svg width="232pt" height="229pt"
 viewBox="0.00 0.00 232.00 229.00" xmlns="http://www.w3.org/2000/svg" xmlns:xlink="http://www.w3.org/1999/xlink">
<g id="graph0" class="graph" transform="scale(1 1) rotate(0) translate(4 225)">
<title>fiftyone.ipintelligence.cloud.data.IPIntelligenceDataCloud</title>
<!-- Node0 -->
<g id="node1" class="node">
<title>Node0</title>
<g id="a_node1"><a xlink:title="Cloud specific interface for IPIntelligenceData.">
<polygon fill="#bfbfbf" stroke="black" points="22.5,-67.5 22.5,-97.5 201.5,-97.5 201.5,-67.5 22.5,-67.5"/>
<text text-anchor="start" x="30.5" y="-85.5" font-family="Helvetica,sans-Serif" font-size="10.00">fiftyone.ipintelligence.cloud.data.</text>
<text text-anchor="middle" x="112" y="-74.5" font-family="Helvetica,sans-Serif" font-size="10.00">IPIntelligenceDataCloud</text>
</a>
</g>
</g>
<!-- Node3 -->
<g id="node4" class="node">
<title>Node3</title>
<g id="a_node4"><a xlink:href="classfiftyone_1_1ipintelligence_1_1cloud_1_1flowelements_1_1_i_p_intelligence_data_cloud_internal.html" target="_top" xlink:title="Internal implementation of the IPIntelligenceDataCloud interface.">
<polygon fill="none" stroke="black" points="0,-0.5 0,-30.5 224,-30.5 224,-0.5 0,-0.5"/>
<text text-anchor="start" x="8" y="-18.5" font-family="Helvetica,sans-Serif" font-size="10.00">fiftyone.ipintelligence.cloud.flowelements.</text>
<text text-anchor="middle" x="112" y="-7.5" font-family="Helvetica,sans-Serif" font-size="10.00">IPIntelligenceDataCloudInternal</text>
</a>
</g>
</g>
<!-- Node0&#45;&gt;Node3 -->
<g id="edge3" class="edge">
<title>Node0&#45;&gt;Node3</title>
<path fill="none" stroke="midnightblue" d="M112,-57.11C112,-48.15 112,-38.32 112,-30.58"/>
<polygon fill="midnightblue" stroke="midnightblue" points="108.5,-57.4 112,-67.4 115.5,-57.4 108.5,-57.4"/>
</g>
<!-- Node1 -->
<g id="node2" class="node">
<title>Node1</title>
<g id="a_node2"><a xlink:href="interfacefiftyone_1_1ipintelligence_1_1shared_1_1_i_p_intelligence_data.html" target="_top" xlink:title="Interface exposing typed accessors for properties related to an IP.">
<polygon fill="none" stroke="black" points="31.5,-134.5 31.5,-164.5 192.5,-164.5 192.5,-134.5 31.5,-134.5"/>
<text text-anchor="start" x="39.5" y="-152.5" font-family="Helvetica,sans-Serif" font-size="10.00">fiftyone.ipintelligence.shared.</text>
<text text-anchor="middle" x="112" y="-141.5" font-family="Helvetica,sans-Serif" font-size="10.00">IPIntelligenceData</text>
</a>
</g>
</g>
<!-- Node1&#45;&gt;Node0 -->
<g id="edge1" class="edge">
<title>Node1&#45;&gt;Node0</title>
<path fill="none" stroke="midnightblue" d="M112,-124.11C112,-115.15 112,-105.32 112,-97.58"/>
<polygon fill="midnightblue" stroke="midnightblue" points="108.5,-124.4 112,-134.4 115.5,-124.4 108.5,-124.4"/>
</g>
<!-- Node2 -->
<g id="node3" class="node">
<title>Node2</title>
<g id="a_node3"><a xlink:title=" ">
<polygon fill="none" stroke="#bfbfbf" points="75.5,-201.5 75.5,-220.5 148.5,-220.5 148.5,-201.5 75.5,-201.5"/>
<text text-anchor="middle" x="112" y="-208.5" font-family="Helvetica,sans-Serif" font-size="10.00">AspectData</text>
</a>
</g>
</g>
<!-- Node2&#45;&gt;Node1 -->
<g id="edge2" class="edge">
<title>Node2&#45;&gt;Node1</title>
<path fill="none" stroke="midnightblue" d="M112,-191.23C112,-182.59 112,-172.5 112,-164.52"/>
<polygon fill="midnightblue" stroke="midnightblue" points="108.5,-191.48 112,-201.48 115.5,-191.48 108.5,-191.48"/>
</g>
</g>
</svg>
