<?xml version="1.0" encoding="UTF-8" standalone="no"?>
<!DOCTYPE svg PUBLIC "-//W3C//DTD SVG 1.1//EN"
 "http://www.w3.org/Graphics/SVG/1.1/DTD/svg11.dtd">
<!-- Generated by graphviz version 2.43.0 (0)
 -->
<!-- Title: fiftyone.ipintelligence.shared.IPIntelligenceData Pages: 1 -->
<svg width="1091pt" height="137pt"
 viewBox="0.00 0.00 1091.00 137.00" xmlns="http://www.w3.org/2000/svg" xmlns:xlink="http://www.w3.org/1999/xlink">
<g id="graph0" class="graph" transform="scale(1 1) rotate(0) translate(4 133)">
<title>fiftyone.ipintelligence.shared.IPIntelligenceData</title>
<!-- Node0 -->
<g id="node1" class="node">
<title>Node0</title>
<g id="a_node1"><a xlink:title="Interface exposing typed accessors for properties related to an IP.">
<polygon fill="#bfbfbf" stroke="black" points="109,-50.5 109,-80.5 270,-80.5 270,-50.5 109,-50.5"/>
<text text-anchor="start" x="117" y="-68.5" font-family="Helvetica,sans-Serif" font-size="10.00">fiftyone.ipintelligence.shared.</text>
<text text-anchor="middle" x="189.5" y="-57.5" font-family="Helvetica,sans-Serif" font-size="10.00">IPIntelligenceData</text>
</a>
</g>
</g>
<!-- Node2 -->
<g id="node3" class="node">
<title>Node2</title>
<g id="a_node3"><a xlink:href="interfacefiftyone_1_1ipintelligence_1_1cloud_1_1data_1_1_i_p_intelligence_data_cloud.html" target="_top" xlink:title="Cloud specific interface for IPIntelligenceData.">
<polygon fill="none" stroke="black" points="306,-50.5 306,-80.5 485,-80.5 485,-50.5 306,-50.5"/>
<text text-anchor="start" x="314" y="-68.5" font-family="Helvetica,sans-Serif" font-size="10.00">fiftyone.ipintelligence.cloud.data.</text>
<text text-anchor="middle" x="395.5" y="-57.5" font-family="Helvetica,sans-Serif" font-size="10.00">IPIntelligenceDataCloud</text>
</a>
</g>
</g>
<!-- Node0&#45;&gt;Node2 -->
<g id="edge2" class="edge">
<title>Node0&#45;&gt;Node2</title>
<path fill="none" stroke="midnightblue" d="M280.41,-65.5C288.8,-65.5 297.3,-65.5 305.69,-65.5"/>
<polygon fill="midnightblue" stroke="midnightblue" points="280.25,-62 270.25,-65.5 280.25,-69 280.25,-62"/>
</g>
<!-- Node4 -->
<g id="node5" class="node">
<title>Node4</title>
<g id="a_node5"><a xlink:href="interfacefiftyone_1_1ipintelligence_1_1engine_1_1onpremise_1_1data_1_1_i_p_intelligence_data_hash.html" target="_top" xlink:title="On&#45;premise specific interface for IPIntelligenceData.">
<polygon fill="none" stroke="black" points="521,-98.5 521,-128.5 762,-128.5 762,-98.5 521,-98.5"/>
<text text-anchor="start" x="529" y="-116.5" font-family="Helvetica,sans-Serif" font-size="10.00">fiftyone.ipintelligence.engine.onpremise.data.</text>
<text text-anchor="middle" x="641.5" y="-105.5" font-family="Helvetica,sans-Serif" font-size="10.00">IPIntelligenceDataHash</text>
</a>
</g>
</g>
<!-- Node0&#45;&gt;Node4 -->
<g id="edge4" class="edge">
<title>Node0&#45;&gt;Node4</title>
<path fill="none" stroke="midnightblue" d="M265.46,-82.59C278.9,-85.22 292.83,-87.67 306,-89.5 376.93,-99.37 456.92,-105.3 520.89,-108.79"/>
<polygon fill="midnightblue" stroke="midnightblue" points="265.78,-79.08 255.29,-80.55 264.41,-85.95 265.78,-79.08"/>
</g>
<!-- Node6 -->
<g id="node7" class="node">
<title>Node6</title>
<g id="a_node7"><a xlink:href="classfiftyone_1_1ipintelligence_1_1shared_1_1_i_p_intelligence_data_base.html" target="_top" xlink:title=" ">
<polygon fill="none" stroke="black" points="315,-1.5 315,-31.5 476,-31.5 476,-1.5 315,-1.5"/>
<text text-anchor="start" x="323" y="-19.5" font-family="Helvetica,sans-Serif" font-size="10.00">fiftyone.ipintelligence.shared.</text>
<text text-anchor="middle" x="395.5" y="-8.5" font-family="Helvetica,sans-Serif" font-size="10.00">IPIntelligenceDataBase</text>
</a>
</g>
</g>
<!-- Node0&#45;&gt;Node6 -->
<g id="edge6" class="edge">
<title>Node0&#45;&gt;Node6</title>
<path fill="none" stroke="midnightblue" d="M262.96,-48.1C285.52,-42.68 310.2,-36.75 332.03,-31.51"/>
<polygon fill="midnightblue" stroke="midnightblue" points="262,-44.73 253.09,-50.47 263.63,-51.53 262,-44.73"/>
</g>
<!-- Node1 -->
<g id="node2" class="node">
<title>Node1</title>
<g id="a_node2"><a xlink:title=" ">
<polygon fill="none" stroke="#bfbfbf" points="0,-56 0,-75 73,-75 73,-56 0,-56"/>
<text text-anchor="middle" x="36.5" y="-63" font-family="Helvetica,sans-Serif" font-size="10.00">AspectData</text>
</a>
</g>
</g>
<!-- Node1&#45;&gt;Node0 -->
<g id="edge1" class="edge">
<title>Node1&#45;&gt;Node0</title>
<path fill="none" stroke="midnightblue" d="M83.55,-65.5C91.63,-65.5 100.24,-65.5 108.92,-65.5"/>
<polygon fill="midnightblue" stroke="midnightblue" points="83.28,-62 73.28,-65.5 83.28,-69 83.28,-62"/>
</g>
<!-- Node3 -->
<g id="node4" class="node">
<title>Node3</title>
<g id="a_node4"><a xlink:href="classfiftyone_1_1ipintelligence_1_1cloud_1_1flowelements_1_1_i_p_intelligence_data_cloud_internal.html" target="_top" xlink:title="Internal implementation of the IPIntelligenceDataCloud interface.">
<polygon fill="none" stroke="black" points="529.5,-49.5 529.5,-79.5 753.5,-79.5 753.5,-49.5 529.5,-49.5"/>
<text text-anchor="start" x="537.5" y="-67.5" font-family="Helvetica,sans-Serif" font-size="10.00">fiftyone.ipintelligence.cloud.flowelements.</text>
<text text-anchor="middle" x="641.5" y="-56.5" font-family="Helvetica,sans-Serif" font-size="10.00">IPIntelligenceDataCloudInternal</text>
</a>
</g>
</g>
<!-- Node2&#45;&gt;Node3 -->
<g id="edge3" class="edge">
<title>Node2&#45;&gt;Node3</title>
<path fill="none" stroke="midnightblue" d="M495.44,-65.09C506.59,-65.05 518.01,-65 529.31,-64.96"/>
<polygon fill="midnightblue" stroke="midnightblue" points="495.27,-61.6 485.28,-65.14 495.29,-68.6 495.27,-61.6"/>
</g>
<!-- Node5 -->
<g id="node6" class="node">
<title>Node5</title>
<g id="a_node6"><a xlink:href="classfiftyone_1_1ipintelligence_1_1engine_1_1onpremise_1_1flowelements_1_1_i_p_intelligence_data_hash_default.html" target="_top" xlink:title="Internal implementation of the IPIntelligenceDataHash interface.">
<polygon fill="none" stroke="black" points="798,-49.5 798,-79.5 1083,-79.5 1083,-49.5 798,-49.5"/>
<text text-anchor="start" x="806" y="-67.5" font-family="Helvetica,sans-Serif" font-size="10.00">fiftyone.ipintelligence.engine.onpremise.flowelements.</text>
<text text-anchor="middle" x="940.5" y="-56.5" font-family="Helvetica,sans-Serif" font-size="10.00">IPIntelligenceDataHashDefault</text>
</a>
</g>
</g>
<!-- Node4&#45;&gt;Node5 -->
<g id="edge5" class="edge">
<title>Node4&#45;&gt;Node5</title>
<path fill="none" stroke="midnightblue" d="M743.59,-96.82C777.61,-91.21 815.35,-84.98 848.54,-79.51"/>
<polygon fill="midnightblue" stroke="midnightblue" points="742.93,-93.38 733.63,-98.47 744.06,-100.29 742.93,-93.38"/>
</g>
<!-- Node6&#45;&gt;Node3 -->
<g id="edge7" class="edge">
<title>Node6&#45;&gt;Node3</title>
<path fill="none" stroke="midnightblue" d="M483.06,-33.53C509.55,-38.74 538.48,-44.43 564.24,-49.5"/>
<polygon fill="midnightblue" stroke="midnightblue" points="483.52,-30.05 473.03,-31.56 482.17,-36.92 483.52,-30.05"/>
</g>
<!-- Node7 -->
<g id="node8" class="node">
<title>Node7</title>
<g id="a_node8"><a xlink:href="classfiftyone_1_1ipintelligence_1_1shared_1_1_i_p_intelligence_data_base_on_premise.html" target="_top" xlink:title="Base class used for all 51Degrees on&#45;premise IP Intelligence results classes.">
<polygon fill="none" stroke="black" points="550,-0.5 550,-30.5 733,-30.5 733,-0.5 550,-0.5"/>
<text text-anchor="start" x="558" y="-18.5" font-family="Helvetica,sans-Serif" font-size="10.00">fiftyone.ipintelligence.shared.</text>
<text text-anchor="middle" x="641.5" y="-7.5" font-family="Helvetica,sans-Serif" font-size="10.00">IPIntelligenceDataBaseOnPremise</text>
</a>
</g>
</g>
<!-- Node6&#45;&gt;Node7 -->
<g id="edge8" class="edge">
<title>Node6&#45;&gt;Node7</title>
<path fill="none" stroke="midnightblue" d="M486.1,-16.13C506.81,-16.05 528.86,-15.96 549.62,-15.87"/>
<polygon fill="midnightblue" stroke="midnightblue" points="486.04,-12.63 476.06,-16.17 486.07,-19.63 486.04,-12.63"/>
</g>
<!-- Node7&#45;&gt;Node5 -->
<g id="edge9" class="edge">
<title>Node7&#45;&gt;Node5</title>
<path fill="none" stroke="midnightblue" d="M743.21,-32.12C777.34,-37.75 815.24,-44 848.56,-49.5"/>
<polygon fill="midnightblue" stroke="midnightblue" points="743.66,-28.64 733.22,-30.47 742.52,-35.55 743.66,-28.64"/>
</g>
</g>
</svg>
