<?xml version="1.0" encoding="UTF-8" standalone="no"?>
<!DOCTYPE svg PUBLIC "-//W3C//DTD SVG 1.1//EN"
 "http://www.w3.org/Graphics/SVG/1.1/DTD/svg11.dtd">
<!-- Generated by graphviz version 2.43.0 (0)
 -->
<!-- Title: fiftyone.ipintelligence.cloud.flowelements.IPIntelligenceDataCloudInternal Pages: 1 -->
<svg width="753pt" height="88pt"
 viewBox="0.00 0.00 753.00 88.00" xmlns="http://www.w3.org/2000/svg" xmlns:xlink="http://www.w3.org/1999/xlink">
<g id="graph0" class="graph" transform="scale(1 1) rotate(0) translate(4 84)">
<title>fiftyone.ipintelligence.cloud.flowelements.IPIntelligenceDataCloudInternal</title>
<!-- Node6 -->
<g id="node1" class="node">
<title>Node6</title>
<g id="a_node1"><a xlink:title="Internal implementation of the IPIntelligenceDataCloud interface.">
<polygon fill="#bfbfbf" stroke="black" points="521,-24.5 521,-54.5 745,-54.5 745,-24.5 521,-24.5"/>
<text text-anchor="start" x="529" y="-42.5" font-family="Helvetica,sans-Serif" font-size="10.00">fiftyone.ipintelligence.cloud.flowelements.</text>
<text text-anchor="middle" x="633" y="-31.5" font-family="Helvetica,sans-Serif" font-size="10.00">IPIntelligenceDataCloudInternal</text>
</a>
</g>
</g>
<!-- Node7 -->
<g id="node2" class="node">
<title>Node7</title>
<g id="a_node2"><a xlink:href="classfiftyone_1_1ipintelligence_1_1shared_1_1_i_p_intelligence_data_base.html" target="_top" xlink:title=" ">
<polygon fill="none" stroke="black" points="315,-49.5 315,-79.5 476,-79.5 476,-49.5 315,-49.5"/>
<text text-anchor="start" x="323" y="-67.5" font-family="Helvetica,sans-Serif" font-size="10.00">fiftyone.ipintelligence.shared.</text>
<text text-anchor="middle" x="395.5" y="-56.5" font-family="Helvetica,sans-Serif" font-size="10.00">IPIntelligenceDataBase</text>
</a>
</g>
</g>
<!-- Node7&#45;&gt;Node6 -->
<g id="edge1" class="edge">
<title>Node7&#45;&gt;Node6</title>
<path fill="none" stroke="midnightblue" d="M486.39,-54.96C497.58,-53.77 509.13,-52.54 520.6,-51.33"/>
<polygon fill="midnightblue" stroke="midnightblue" points="485.8,-51.5 476.23,-56.04 486.54,-58.46 485.8,-51.5"/>
</g>
<!-- Node8 -->
<g id="node3" class="node">
<title>Node8</title>
<g id="a_node3"><a xlink:title=" ">
<polygon fill="none" stroke="#bfbfbf" points="141,-55 141,-74 238,-74 238,-55 141,-55"/>
<text text-anchor="middle" x="189.5" y="-62" font-family="Helvetica,sans-Serif" font-size="10.00">AspectDataBase</text>
</a>
</g>
</g>
<!-- Node8&#45;&gt;Node7 -->
<g id="edge2" class="edge">
<title>Node8&#45;&gt;Node7</title>
<path fill="none" stroke="midnightblue" d="M248.28,-64.5C268.96,-64.5 292.65,-64.5 314.86,-64.5"/>
<polygon fill="midnightblue" stroke="midnightblue" points="248.07,-61 238.07,-64.5 248.07,-68 248.07,-61"/>
</g>
<!-- Node9 -->
<g id="node4" class="node">
<title>Node9</title>
<g id="a_node4"><a xlink:href="interfacefiftyone_1_1ipintelligence_1_1shared_1_1_i_p_intelligence_data.html" target="_top" xlink:title="Interface exposing typed accessors for properties related to a device returned by a IP Intelligence e...">
<polygon fill="none" stroke="black" points="109,-3.5 109,-33.5 270,-33.5 270,-3.5 109,-3.5"/>
<text text-anchor="start" x="117" y="-21.5" font-family="Helvetica,sans-Serif" font-size="10.00">fiftyone.ipintelligence.shared.</text>
<text text-anchor="middle" x="189.5" y="-10.5" font-family="Helvetica,sans-Serif" font-size="10.00">IPIntelligenceData</text>
</a>
</g>
</g>
<!-- Node9&#45;&gt;Node7 -->
<g id="edge3" class="edge">
<title>Node9&#45;&gt;Node7</title>
<path fill="none" stroke="midnightblue" d="M267.27,-35.81C287.21,-40.31 308.53,-45.11 327.9,-49.48"/>
<polygon fill="midnightblue" stroke="midnightblue" points="267.82,-32.35 257.3,-33.56 266.28,-39.18 267.82,-32.35"/>
</g>
<!-- Node11 -->
<g id="node6" class="node">
<title>Node11</title>
<g id="a_node6"><a xlink:href="interfacefiftyone_1_1ipintelligence_1_1cloud_1_1data_1_1_i_p_intelligence_data_cloud.html" target="_top" xlink:title="Cloud specific interface for IPIntelligenceData.">
<polygon fill="none" stroke="black" points="306,-0.5 306,-30.5 485,-30.5 485,-0.5 306,-0.5"/>
<text text-anchor="start" x="314" y="-18.5" font-family="Helvetica,sans-Serif" font-size="10.00">fiftyone.ipintelligence.cloud.data.</text>
<text text-anchor="middle" x="395.5" y="-7.5" font-family="Helvetica,sans-Serif" font-size="10.00">IPIntelligenceDataCloud</text>
</a>
</g>
</g>
<!-- Node9&#45;&gt;Node11 -->
<g id="edge6" class="edge">
<title>Node9&#45;&gt;Node11</title>
<path fill="none" stroke="midnightblue" d="M280.41,-17.18C288.8,-17.05 297.3,-16.93 305.69,-16.81"/>
<polygon fill="midnightblue" stroke="midnightblue" points="280.2,-13.68 270.25,-17.33 280.3,-20.68 280.2,-13.68"/>
</g>
<!-- Node10 -->
<g id="node5" class="node">
<title>Node10</title>
<g id="a_node5"><a xlink:title=" ">
<polygon fill="none" stroke="#bfbfbf" points="0,-9 0,-28 73,-28 73,-9 0,-9"/>
<text text-anchor="middle" x="36.5" y="-16" font-family="Helvetica,sans-Serif" font-size="10.00">AspectData</text>
</a>
</g>
</g>
<!-- Node10&#45;&gt;Node9 -->
<g id="edge4" class="edge">
<title>Node10&#45;&gt;Node9</title>
<path fill="none" stroke="midnightblue" d="M83.55,-18.5C91.63,-18.5 100.24,-18.5 108.92,-18.5"/>
<polygon fill="midnightblue" stroke="midnightblue" points="83.28,-15 73.28,-18.5 83.28,-22 83.28,-15"/>
</g>
<!-- Node11&#45;&gt;Node6 -->
<g id="edge5" class="edge">
<title>Node11&#45;&gt;Node6</title>
<path fill="none" stroke="midnightblue" d="M495.35,-25.57C503.73,-26.43 512.25,-27.3 520.72,-28.16"/>
<polygon fill="midnightblue" stroke="midnightblue" points="495.5,-22.07 485.2,-24.54 494.79,-29.04 495.5,-22.07"/>
</g>
</g>
</svg>
