<?xml version="1.0" encoding="UTF-8" standalone="no"?>
<!DOCTYPE svg PUBLIC "-//W3C//DTD SVG 1.1//EN"
 "http://www.w3.org/Graphics/SVG/1.1/DTD/svg11.dtd">
<!-- Generated by graphviz version 2.43.0 (0)
 -->
<!-- Title: fiftyone.ipintelligence.shared.IPIntelligenceDataBaseOnPremise Pages: 1 -->
<svg width="1015pt" height="78pt"
 viewBox="0.00 0.00 1015.00 77.50" xmlns="http://www.w3.org/2000/svg" xmlns:xlink="http://www.w3.org/1999/xlink">
<g id="graph0" class="graph" transform="scale(1 1) rotate(0) translate(4 73.5)">
<title>fiftyone.ipintelligence.shared.IPIntelligenceDataBaseOnPremise</title>
<!-- Node0 -->
<g id="node1" class="node">
<title>Node0</title>
<g id="a_node1"><a xlink:title="Base class used for all 51Degrees on&#45;premise IP Intelligence results classes.">
<polygon fill="#bfbfbf" stroke="black" points="503,-22.5 503,-52.5 686,-52.5 686,-22.5 503,-22.5"/>
<text text-anchor="start" x="511" y="-40.5" font-family="Helvetica,sans-Serif" font-size="10.00">fiftyone.ipintelligence.shared.</text>
<text text-anchor="middle" x="594.5" y="-29.5" font-family="Helvetica,sans-Serif" font-size="10.00">IPIntelligenceDataBaseOnPremise</text>
</a>
</g>
</g>
<!-- Node5 -->
<g id="node6" class="node">
<title>Node5</title>
<g id="a_node6"><a xlink:href="classfiftyone_1_1ipintelligence_1_1engine_1_1onpremise_1_1flowelements_1_1_i_p_intelligence_data_hash_default.html" target="_top" xlink:title="Internal implementation of the IPIntelligenceDataHash interface.">
<polygon fill="none" stroke="black" points="722,-22.5 722,-52.5 1007,-52.5 1007,-22.5 722,-22.5"/>
<text text-anchor="start" x="730" y="-40.5" font-family="Helvetica,sans-Serif" font-size="10.00">fiftyone.ipintelligence.engine.onpremise.flowelements.</text>
<text text-anchor="middle" x="864.5" y="-29.5" font-family="Helvetica,sans-Serif" font-size="10.00">IPIntelligenceDataHashDefault</text>
</a>
</g>
</g>
<!-- Node0&#45;&gt;Node5 -->
<g id="edge5" class="edge">
<title>Node0&#45;&gt;Node5</title>
<path fill="none" stroke="midnightblue" d="M696.35,-37.5C704.73,-37.5 713.29,-37.5 721.9,-37.5"/>
<polygon fill="midnightblue" stroke="midnightblue" points="696.23,-34 686.23,-37.5 696.23,-41 696.23,-34"/>
</g>
<!-- Node1 -->
<g id="node2" class="node">
<title>Node1</title>
<g id="a_node2"><a xlink:href="classfiftyone_1_1ipintelligence_1_1shared_1_1_i_p_intelligence_data_base.html" target="_top" xlink:title=" ">
<polygon fill="none" stroke="black" points="306,-22.5 306,-52.5 467,-52.5 467,-22.5 306,-22.5"/>
<text text-anchor="start" x="314" y="-40.5" font-family="Helvetica,sans-Serif" font-size="10.00">fiftyone.ipintelligence.shared.</text>
<text text-anchor="middle" x="386.5" y="-29.5" font-family="Helvetica,sans-Serif" font-size="10.00">IPIntelligenceDataBase</text>
</a>
</g>
</g>
<!-- Node1&#45;&gt;Node0 -->
<g id="edge1" class="edge">
<title>Node1&#45;&gt;Node0</title>
<path fill="none" stroke="midnightblue" d="M477.35,-37.5C485.77,-37.5 494.32,-37.5 502.75,-37.5"/>
<polygon fill="midnightblue" stroke="midnightblue" points="477.15,-34 467.14,-37.5 477.14,-41 477.15,-34"/>
</g>
<!-- Node2 -->
<g id="node3" class="node">
<title>Node2</title>
<g id="a_node3"><a xlink:title=" ">
<polygon fill="none" stroke="#bfbfbf" points="141,-50 141,-69 238,-69 238,-50 141,-50"/>
<text text-anchor="middle" x="189.5" y="-57" font-family="Helvetica,sans-Serif" font-size="10.00">AspectDataBase</text>
</a>
</g>
</g>
<!-- Node2&#45;&gt;Node1 -->
<g id="edge2" class="edge">
<title>Node2&#45;&gt;Node1</title>
<path fill="none" stroke="midnightblue" d="M248.23,-52.99C266.22,-50.96 286.39,-48.68 305.62,-46.51"/>
<polygon fill="midnightblue" stroke="midnightblue" points="247.75,-49.52 238.2,-54.12 248.53,-56.47 247.75,-49.52"/>
</g>
<!-- Node3 -->
<g id="node4" class="node">
<title>Node3</title>
<g id="a_node4"><a xlink:href="interfacefiftyone_1_1ipintelligence_1_1shared_1_1_i_p_intelligence_data.html" target="_top" xlink:title="Interface exposing typed accessors for properties related to an IP.">
<polygon fill="none" stroke="black" points="109,-0.5 109,-30.5 270,-30.5 270,-0.5 109,-0.5"/>
<text text-anchor="start" x="117" y="-18.5" font-family="Helvetica,sans-Serif" font-size="10.00">fiftyone.ipintelligence.shared.</text>
<text text-anchor="middle" x="189.5" y="-7.5" font-family="Helvetica,sans-Serif" font-size="10.00">IPIntelligenceData</text>
</a>
</g>
</g>
<!-- Node3&#45;&gt;Node1 -->
<g id="edge3" class="edge">
<title>Node3&#45;&gt;Node1</title>
<path fill="none" stroke="midnightblue" d="M280.12,-25.61C288.7,-26.58 297.36,-27.56 305.84,-28.51"/>
<polygon fill="midnightblue" stroke="midnightblue" points="280.42,-22.12 270.1,-24.48 279.64,-29.08 280.42,-22.12"/>
</g>
<!-- Node4 -->
<g id="node5" class="node">
<title>Node4</title>
<g id="a_node5"><a xlink:title=" ">
<polygon fill="none" stroke="#bfbfbf" points="0,-6 0,-25 73,-25 73,-6 0,-6"/>
<text text-anchor="middle" x="36.5" y="-13" font-family="Helvetica,sans-Serif" font-size="10.00">AspectData</text>
</a>
</g>
</g>
<!-- Node4&#45;&gt;Node3 -->
<g id="edge4" class="edge">
<title>Node4&#45;&gt;Node3</title>
<path fill="none" stroke="midnightblue" d="M83.55,-15.5C91.63,-15.5 100.24,-15.5 108.92,-15.5"/>
<polygon fill="midnightblue" stroke="midnightblue" points="83.28,-12 73.28,-15.5 83.28,-19 83.28,-12"/>
</g>
</g>
</svg>
