<?xml version="1.0" encoding="UTF-8" standalone="no"?>
<!DOCTYPE svg PUBLIC "-//W3C//DTD SVG 1.1//EN"
 "http://www.w3.org/Graphics/SVG/1.1/DTD/svg11.dtd">
<!-- Generated by graphviz version 2.43.0 (0)
 -->
<!-- Title: fiftyone.ipintelligence.shared.IPIntelligenceDataBase Pages: 1 -->
<svg width="284pt" height="162pt"
 viewBox="0.00 0.00 284.00 162.00" xmlns="http://www.w3.org/2000/svg" xmlns:xlink="http://www.w3.org/1999/xlink">
<g id="graph0" class="graph" transform="scale(1 1) rotate(0) translate(4 158)">
<title>fiftyone.ipintelligence.shared.IPIntelligenceDataBase</title>
<!-- Node7 -->
<g id="node1" class="node">
<title>Node7</title>
<g id="a_node1"><a xlink:title=" ">
<polygon fill="#bfbfbf" stroke="black" points="41,-0.5 41,-30.5 202,-30.5 202,-0.5 41,-0.5"/>
<text text-anchor="start" x="49" y="-18.5" font-family="Helvetica,sans-Serif" font-size="10.00">fiftyone.ipintelligence.shared.</text>
<text text-anchor="middle" x="121.5" y="-7.5" font-family="Helvetica,sans-Serif" font-size="10.00">IPIntelligenceDataBase</text>
</a>
</g>
</g>
<!-- Node8 -->
<g id="node2" class="node">
<title>Node8</title>
<g id="a_node2"><a xlink:title=" ">
<polygon fill="none" stroke="#bfbfbf" points="0,-73 0,-92 97,-92 97,-73 0,-73"/>
<text text-anchor="middle" x="48.5" y="-80" font-family="Helvetica,sans-Serif" font-size="10.00">AspectDataBase</text>
</a>
</g>
</g>
<!-- Node8&#45;&gt;Node7 -->
<g id="edge1" class="edge">
<title>Node8&#45;&gt;Node7</title>
<path fill="none" stroke="midnightblue" d="M65.99,-65.93C78.06,-55.18 93.98,-41 105.68,-30.59"/>
<polygon fill="midnightblue" stroke="midnightblue" points="63.49,-63.47 58.35,-72.73 68.14,-68.7 63.49,-63.47"/>
</g>
<!-- Node9 -->
<g id="node3" class="node">
<title>Node9</title>
<g id="a_node3"><a xlink:href="interfacefiftyone_1_1ipintelligence_1_1shared_1_1_i_p_intelligence_data.html" target="_top" xlink:title="Interface exposing typed accessors for properties related to a device returned by a IP Intelligence e...">
<polygon fill="none" stroke="black" points="115,-67.5 115,-97.5 276,-97.5 276,-67.5 115,-67.5"/>
<text text-anchor="start" x="123" y="-85.5" font-family="Helvetica,sans-Serif" font-size="10.00">fiftyone.ipintelligence.shared.</text>
<text text-anchor="middle" x="195.5" y="-74.5" font-family="Helvetica,sans-Serif" font-size="10.00">IPIntelligenceData</text>
</a>
</g>
</g>
<!-- Node9&#45;&gt;Node7 -->
<g id="edge2" class="edge">
<title>Node9&#45;&gt;Node7</title>
<path fill="none" stroke="midnightblue" d="M171.7,-60.6C160.53,-50.78 147.51,-39.34 137.53,-30.58"/>
<polygon fill="midnightblue" stroke="midnightblue" points="169.62,-63.43 179.44,-67.4 174.24,-58.17 169.62,-63.43"/>
</g>
<!-- Node10 -->
<g id="node4" class="node">
<title>Node10</title>
<g id="a_node4"><a xlink:title=" ">
<polygon fill="none" stroke="#bfbfbf" points="159,-134.5 159,-153.5 232,-153.5 232,-134.5 159,-134.5"/>
<text text-anchor="middle" x="195.5" y="-141.5" font-family="Helvetica,sans-Serif" font-size="10.00">AspectData</text>
</a>
</g>
</g>
<!-- Node10&#45;&gt;Node9 -->
<g id="edge3" class="edge">
<title>Node10&#45;&gt;Node9</title>
<path fill="none" stroke="midnightblue" d="M195.5,-124.23C195.5,-115.59 195.5,-105.5 195.5,-97.52"/>
<polygon fill="midnightblue" stroke="midnightblue" points="192,-124.48 195.5,-134.48 199,-124.48 192,-124.48"/>
</g>
</g>
</svg>
