<?xml version="1.0" encoding="UTF-8" standalone="no"?>
<!DOCTYPE svg PUBLIC "-//W3C//DTD SVG 1.1//EN"
 "http://www.w3.org/Graphics/SVG/1.1/DTD/svg11.dtd">
<!-- Generated by graphviz version 2.43.0 (0)
 -->
<!-- Title: fiftyone.ipintelligence.examples.console.PerformanceBenchmark Pages: 1 -->
<svg width="788pt" height="79pt"
 viewBox="0.00 0.00 788.00 78.50" xmlns="http://www.w3.org/2000/svg" xmlns:xlink="http://www.w3.org/1999/xlink">
<g id="graph0" class="graph" transform="scale(1 1) rotate(0) translate(4 74.5)">
<title>fiftyone.ipintelligence.examples.console.PerformanceBenchmark</title>
<!-- Node1 -->
<g id="node1" class="node">
<title>Node1</title>
<g id="a_node1"><a xlink:title="The example illustrates the flexibility with which the 51Degrees pipeline can be configured to achiev...">
<polygon fill="#bfbfbf" stroke="black" points="563,-22.5 563,-52.5 780,-52.5 780,-22.5 563,-22.5"/>
<text text-anchor="start" x="571" y="-40.5" font-family="Helvetica,sans-Serif" font-size="10.00">fiftyone.ipintelligence.examples.console.</text>
<text text-anchor="middle" x="671.5" y="-29.5" font-family="Helvetica,sans-Serif" font-size="10.00">PerformanceBenchmark</text>
</a>
</g>
</g>
<!-- Node2 -->
<g id="node2" class="node">
<title>Node2</title>
<g id="a_node2"><a xlink:title=" ">
<polygon fill="none" stroke="#bfbfbf" points="242.5,-51 242.5,-70 292.5,-70 292.5,-51 242.5,-51"/>
<text text-anchor="middle" x="267.5" y="-58" font-family="Helvetica,sans-Serif" font-size="10.00">Logger</text>
</a>
</g>
</g>
<!-- Node2&#45;&gt;Node1 -->
<g id="edge1" class="edge">
<title>Node2&#45;&gt;Node1</title>
<path fill="none" stroke="#9a32cd" stroke-dasharray="5,2" d="M303.01,-58.53C360.05,-55.26 476.28,-48.61 562.83,-43.66"/>
<polygon fill="#9a32cd" stroke="#9a32cd" points="302.53,-55.05 292.74,-59.11 302.93,-62.04 302.53,-55.05"/>
<text text-anchor="middle" x="481.5" y="-55.5" font-family="Helvetica,sans-Serif" font-size="10.00"> logger</text>
</g>
<!-- Node3 -->
<g id="node3" class="node">
<title>Node3</title>
<g id="a_node3"><a xlink:href="classfiftyone_1_1ipintelligence_1_1examples_1_1console_1_1_performance_benchmark_1_1_performance_configuration.html" target="_top" xlink:title=" ">
<polygon fill="none" stroke="black" points="135,-0.5 135,-30.5 400,-30.5 400,-0.5 135,-0.5"/>
<text text-anchor="start" x="143" y="-18.5" font-family="Helvetica,sans-Serif" font-size="10.00">fiftyone.ipintelligence.examples.console.</text>
<text text-anchor="middle" x="267.5" y="-7.5" font-family="Helvetica,sans-Serif" font-size="10.00">PerformanceBenchmark.PerformanceConfiguration</text>
</a>
</g>
</g>
<!-- Node3&#45;&gt;Node1 -->
<g id="edge2" class="edge">
<title>Node3&#45;&gt;Node1</title>
<path fill="none" stroke="#9a32cd" stroke-dasharray="5,2" d="M410.24,-11.6C453.55,-11.6 501.29,-12.79 545,-16.5 560.52,-17.82 577.01,-20 592.76,-22.48"/>
<polygon fill="#9a32cd" stroke="#9a32cd" points="410.19,-8.1 400.2,-11.63 410.21,-15.1 410.19,-8.1"/>
<text text-anchor="start" x="418" y="-30.5" font-family="Helvetica,sans-Serif" font-size="10.00"> DEFAULT_PERFORMANCE</text>
<text text-anchor="middle" x="481.5" y="-19.5" font-family="Helvetica,sans-Serif" font-size="10.00">_CONFIGURATIONS</text>
</g>
<!-- Node4 -->
<g id="node4" class="node">
<title>Node4</title>
<g id="a_node4"><a xlink:title=" ">
<polygon fill="none" stroke="#bfbfbf" points="0,-6 0,-25 65,-25 65,-6 0,-6"/>
<text text-anchor="middle" x="32.5" y="-13" font-family="Helvetica,sans-Serif" font-size="10.00">Constants</text>
</a>
</g>
</g>
<!-- Node4&#45;&gt;Node3 -->
<g id="edge3" class="edge">
<title>Node4&#45;&gt;Node3</title>
<path fill="none" stroke="#9a32cd" stroke-dasharray="5,2" d="M75.55,-15.5C92.63,-15.5 113.39,-15.5 134.85,-15.5"/>
<polygon fill="#9a32cd" stroke="#9a32cd" points="75.41,-12 65.41,-15.5 75.41,-19 75.41,-12"/>
<text text-anchor="middle" x="100" y="-18.5" font-family="Helvetica,sans-Serif" font-size="10.00"> profile</text>
</g>
</g>
</svg>
