<?xml version="1.0" encoding="UTF-8" standalone="no"?>
<!DOCTYPE svg PUBLIC "-//W3C//DTD SVG 1.1//EN"
 "http://www.w3.org/Graphics/SVG/1.1/DTD/svg11.dtd">
<!-- Generated by graphviz version 2.43.0 (0)
 -->
<!-- Title: fiftyone.ipintelligence.engine.onpremise.interop.swig.EngineIpiSwig Pages: 1 -->
<svg width="287pt" height="162pt"
 viewBox="0.00 0.00 287.00 162.00" xmlns="http://www.w3.org/2000/svg" xmlns:xlink="http://www.w3.org/1999/xlink">
<g id="graph0" class="graph" transform="scale(1 1) rotate(0) translate(4 158)">
<title>fiftyone.ipintelligence.engine.onpremise.interop.swig.EngineIpiSwig</title>
<!-- Node3 -->
<g id="node1" class="node">
<title>Node3</title>
<g id="a_node1"><a xlink:title=" ">
<polygon fill="#bfbfbf" stroke="black" points="0,-0.5 0,-30.5 279,-30.5 279,-0.5 0,-0.5"/>
<text text-anchor="start" x="8" y="-18.5" font-family="Helvetica,sans-Serif" font-size="10.00">fiftyone.ipintelligence.engine.onpremise.interop.swig.</text>
<text text-anchor="middle" x="139.5" y="-7.5" font-family="Helvetica,sans-Serif" font-size="10.00">EngineIpiSwig</text>
</a>
</g>
</g>
<!-- Node4 -->
<g id="node2" class="node">
<title>Node4</title>
<g id="a_node2"><a xlink:href="classfiftyone_1_1ipintelligence_1_1engine_1_1onpremise_1_1interop_1_1swig_1_1_engine_base_swig.html" target="_top" xlink:title=" ">
<polygon fill="none" stroke="black" points="0,-67.5 0,-97.5 279,-97.5 279,-67.5 0,-67.5"/>
<text text-anchor="start" x="8" y="-85.5" font-family="Helvetica,sans-Serif" font-size="10.00">fiftyone.ipintelligence.engine.onpremise.interop.swig.</text>
<text text-anchor="middle" x="139.5" y="-74.5" font-family="Helvetica,sans-Serif" font-size="10.00">EngineBaseSwig</text>
</a>
</g>
</g>
<!-- Node4&#45;&gt;Node3 -->
<g id="edge1" class="edge">
<title>Node4&#45;&gt;Node3</title>
<path fill="none" stroke="midnightblue" d="M139.5,-57.11C139.5,-48.15 139.5,-38.32 139.5,-30.58"/>
<polygon fill="midnightblue" stroke="midnightblue" points="136,-57.4 139.5,-67.4 143,-57.4 136,-57.4"/>
</g>
<!-- Node5 -->
<g id="node3" class="node">
<title>Node5</title>
<g id="a_node3"><a xlink:title=" ">
<polygon fill="none" stroke="#bfbfbf" points="96,-134.5 96,-153.5 183,-153.5 183,-134.5 96,-134.5"/>
<text text-anchor="middle" x="139.5" y="-141.5" font-family="Helvetica,sans-Serif" font-size="10.00">AutoCloseable</text>
</a>
</g>
</g>
<!-- Node5&#45;&gt;Node4 -->
<g id="edge2" class="edge">
<title>Node5&#45;&gt;Node4</title>
<path fill="none" stroke="midnightblue" d="M139.5,-124.23C139.5,-115.59 139.5,-105.5 139.5,-97.52"/>
<polygon fill="midnightblue" stroke="midnightblue" points="136,-124.48 139.5,-134.48 143,-124.48 136,-124.48"/>
</g>
</g>
</svg>
