<?xml version="1.0" encoding="UTF-8" standalone="no"?>
<!DOCTYPE svg PUBLIC "-//W3C//DTD SVG 1.1//EN"
 "http://www.w3.org/Graphics/SVG/1.1/DTD/svg11.dtd">
<!-- Generated by graphviz version 2.43.0 (0)
 -->
<!-- Title: fiftyone.ipintelligence.examples.console.UpdateDataFile Pages: 1 -->
<svg width="758pt" height="91pt"
 viewBox="0.00 0.00 758.00 91.00" xmlns="http://www.w3.org/2000/svg" xmlns:xlink="http://www.w3.org/1999/xlink">
<g id="graph0" class="graph" transform="scale(1 1) rotate(0) translate(4 87)">
<title>fiftyone.ipintelligence.examples.console.UpdateDataFile</title>
<!-- Node1 -->
<g id="node1" class="node">
<title>Node1</title>
<g id="a_node1"><a xlink:title="This example illustrates various parameters that can be adjusted when using the on&#45;premise IP Intelli...">
<polygon fill="#bfbfbf" stroke="black" points="533,-12 533,-42 750,-42 750,-12 533,-12"/>
<text text-anchor="start" x="541" y="-30" font-family="Helvetica,sans-Serif" font-size="10.00">fiftyone.ipintelligence.examples.console.</text>
<text text-anchor="middle" x="641.5" y="-19" font-family="Helvetica,sans-Serif" font-size="10.00">UpdateDataFile</text>
</a>
</g>
</g>
<!-- Node2 -->
<g id="node2" class="node">
<title>Node2</title>
<g id="a_node2"><a xlink:title=" ">
<polygon fill="none" stroke="#bfbfbf" points="174,-39 174,-69 400,-69 400,-39 174,-39"/>
<text text-anchor="start" x="182" y="-57" font-family="Helvetica,sans-Serif" font-size="10.00">fiftyone.ipintelligence.examples.console.</text>
<text text-anchor="middle" x="287" y="-46" font-family="Helvetica,sans-Serif" font-size="10.00">UpdateDataFile.UpdateCompletionListener</text>
</a>
</g>
</g>
<!-- Node2&#45;&gt;Node1 -->
<g id="edge1" class="edge">
<title>Node2&#45;&gt;Node1</title>
<path fill="none" stroke="#9a32cd" stroke-dasharray="5,2" d="M410.09,-44.65C450.07,-41.59 494.16,-38.21 532.99,-35.24"/>
<polygon fill="#9a32cd" stroke="#9a32cd" points="409.72,-41.17 400.02,-45.42 410.26,-48.15 409.72,-41.17"/>
<text text-anchor="middle" x="466.5" y="-46" font-family="Helvetica,sans-Serif" font-size="10.00"> completionListener</text>
</g>
<!-- Node3 -->
<g id="node3" class="node">
<title>Node3</title>
<g id="a_node3"><a xlink:title=" ">
<polygon fill="none" stroke="#bfbfbf" points="0,-63.5 0,-82.5 113,-82.5 113,-63.5 0,-63.5"/>
<text text-anchor="middle" x="56.5" y="-70.5" font-family="Helvetica,sans-Serif" font-size="10.00">OnUpdateComplete</text>
</a>
</g>
</g>
<!-- Node3&#45;&gt;Node2 -->
<g id="edge2" class="edge">
<title>Node3&#45;&gt;Node2</title>
<path fill="none" stroke="midnightblue" d="M123.26,-67.53C139.06,-66.22 156.38,-64.78 173.65,-63.34"/>
<polygon fill="midnightblue" stroke="midnightblue" points="122.78,-64.06 113.11,-68.38 123.36,-71.04 122.78,-64.06"/>
</g>
<!-- Node4 -->
<g id="node4" class="node">
<title>Node4</title>
<g id="a_node4"><a xlink:title=" ">
<polygon fill="none" stroke="#bfbfbf" points="1,-25.5 1,-44.5 112,-44.5 112,-25.5 1,-25.5"/>
<text text-anchor="middle" x="56.5" y="-32.5" font-family="Helvetica,sans-Serif" font-size="10.00">DataUpdateService</text>
</a>
</g>
</g>
<!-- Node4&#45;&gt;Node2 -->
<g id="edge3" class="edge">
<title>Node4&#45;&gt;Node2</title>
<path fill="none" stroke="#9a32cd" stroke-dasharray="5,2" d="M122.53,-40.41C138.59,-41.74 156.24,-43.21 173.83,-44.67"/>
<polygon fill="#9a32cd" stroke="#9a32cd" points="122.49,-36.89 112.23,-39.55 121.91,-43.87 122.49,-36.89"/>
<text text-anchor="middle" x="143.5" y="-45" font-family="Helvetica,sans-Serif" font-size="10.00"> args</text>
</g>
<!-- Node5 -->
<g id="node5" class="node">
<title>Node5</title>
<g id="a_node5"><a xlink:title=" ">
<polygon fill="none" stroke="#bfbfbf" points="233,-0.5 233,-19.5 341,-19.5 341,-0.5 233,-0.5"/>
<text text-anchor="middle" x="287" y="-7.5" font-family="Helvetica,sans-Serif" font-size="10.00">SimpleDateFormat</text>
</a>
</g>
</g>
<!-- Node5&#45;&gt;Node1 -->
<g id="edge4" class="edge">
<title>Node5&#45;&gt;Node1</title>
<path fill="none" stroke="#9a32cd" stroke-dasharray="5,2" d="M351.27,-10.64C396.83,-11.35 459.75,-12.85 515,-16 520.79,-16.33 526.72,-16.71 532.71,-17.12"/>
<polygon fill="#9a32cd" stroke="#9a32cd" points="351.29,-7.14 341.24,-10.49 351.19,-14.14 351.29,-7.14"/>
<text text-anchor="middle" x="466.5" y="-19" font-family="Helvetica,sans-Serif" font-size="10.00"> simpleDateFormat</text>
</g>
</g>
</svg>
