<?xml version="1.0" encoding="UTF-8" standalone="no"?>
<!DOCTYPE svg PUBLIC "-//W3C//DTD SVG 1.1//EN"
 "http://www.w3.org/Graphics/SVG/1.1/DTD/svg11.dtd">
<!-- Generated by graphviz version 2.43.0 (0)
 -->
<!-- Title: fiftyone.ipintelligence.shared.IPIntelligenceDataBaseOnPremise Pages: 1 -->
<svg width="465pt" height="252pt"
 viewBox="0.00 0.00 464.50 252.00" xmlns="http://www.w3.org/2000/svg" xmlns:xlink="http://www.w3.org/1999/xlink">
<g id="graph0" class="graph" transform="scale(1 1) rotate(0) translate(4 248)">
<title>fiftyone.ipintelligence.shared.IPIntelligenceDataBaseOnPremise</title>
<!-- Node6 -->
<g id="node1" class="node">
<title>Node6</title>
<g id="a_node1"><a xlink:title="Base class used for all 51Degrees on&#45;premise IP Intelligence results classes.">
<polygon fill="#bfbfbf" stroke="black" points="146,-0.5 146,-30.5 329,-30.5 329,-0.5 146,-0.5"/>
<text text-anchor="start" x="154" y="-18.5" font-family="Helvetica,sans-Serif" font-size="10.00">fiftyone.ipintelligence.shared.</text>
<text text-anchor="middle" x="237.5" y="-7.5" font-family="Helvetica,sans-Serif" font-size="10.00">IPIntelligenceDataBaseOnPremise</text>
</a>
</g>
</g>
<!-- Node7 -->
<g id="node2" class="node">
<title>Node7</title>
<g id="a_node2"><a xlink:href="classfiftyone_1_1ipintelligence_1_1shared_1_1_i_p_intelligence_data_base.html" target="_top" xlink:title=" ">
<polygon fill="none" stroke="black" points="68,-78.5 68,-108.5 229,-108.5 229,-78.5 68,-78.5"/>
<text text-anchor="start" x="76" y="-96.5" font-family="Helvetica,sans-Serif" font-size="10.00">fiftyone.ipintelligence.shared.</text>
<text text-anchor="middle" x="148.5" y="-85.5" font-family="Helvetica,sans-Serif" font-size="10.00">IPIntelligenceDataBase</text>
</a>
</g>
</g>
<!-- Node7&#45;&gt;Node6 -->
<g id="edge1" class="edge">
<title>Node7&#45;&gt;Node6</title>
<path fill="none" stroke="midnightblue" d="M173.22,-71.39C188.4,-58.43 207.43,-42.18 220.83,-30.73"/>
<polygon fill="midnightblue" stroke="midnightblue" points="170.57,-69.05 165.24,-78.2 175.12,-74.37 170.57,-69.05"/>
</g>
<!-- Node8 -->
<g id="node3" class="node">
<title>Node8</title>
<g id="a_node3"><a xlink:title=" ">
<polygon fill="none" stroke="#bfbfbf" points="0,-162 0,-181 97,-181 97,-162 0,-162"/>
<text text-anchor="middle" x="48.5" y="-169" font-family="Helvetica,sans-Serif" font-size="10.00">AspectDataBase</text>
</a>
</g>
</g>
<!-- Node8&#45;&gt;Node7 -->
<g id="edge2" class="edge">
<title>Node8&#45;&gt;Node7</title>
<path fill="none" stroke="midnightblue" d="M68.03,-155.65C86,-142 112.44,-121.9 130.05,-108.52"/>
<polygon fill="midnightblue" stroke="midnightblue" points="65.82,-152.94 59.97,-161.78 70.05,-158.52 65.82,-152.94"/>
</g>
<!-- Node9 -->
<g id="node4" class="node">
<title>Node9</title>
<g id="a_node4"><a xlink:href="interfacefiftyone_1_1ipintelligence_1_1shared_1_1_i_p_intelligence_data.html" target="_top" xlink:title="Interface exposing typed accessors for properties related to a device returned by a IP Intelligence e...">
<polygon fill="none" stroke="black" points="115,-156.5 115,-186.5 276,-186.5 276,-156.5 115,-156.5"/>
<text text-anchor="start" x="123" y="-174.5" font-family="Helvetica,sans-Serif" font-size="10.00">fiftyone.ipintelligence.shared.</text>
<text text-anchor="middle" x="195.5" y="-163.5" font-family="Helvetica,sans-Serif" font-size="10.00">IPIntelligenceData</text>
</a>
</g>
</g>
<!-- Node9&#45;&gt;Node7 -->
<g id="edge3" class="edge">
<title>Node9&#45;&gt;Node7</title>
<path fill="none" stroke="midnightblue" d="M181.32,-147.57C173.51,-134.94 164.05,-119.65 157.3,-108.73"/>
<polygon fill="midnightblue" stroke="midnightblue" points="178.42,-149.54 186.66,-156.2 184.38,-145.86 178.42,-149.54"/>
</g>
<!-- Node10 -->
<g id="node5" class="node">
<title>Node10</title>
<g id="a_node5"><a xlink:title=" ">
<polygon fill="none" stroke="#bfbfbf" points="159,-224.5 159,-243.5 232,-243.5 232,-224.5 159,-224.5"/>
<text text-anchor="middle" x="195.5" y="-231.5" font-family="Helvetica,sans-Serif" font-size="10.00">AspectData</text>
</a>
</g>
</g>
<!-- Node10&#45;&gt;Node9 -->
<g id="edge4" class="edge">
<title>Node10&#45;&gt;Node9</title>
<path fill="none" stroke="midnightblue" d="M195.5,-214.22C195.5,-205.36 195.5,-194.96 195.5,-186.76"/>
<polygon fill="midnightblue" stroke="midnightblue" points="192,-214.33 195.5,-224.33 199,-214.33 192,-214.33"/>
</g>
<!-- Node11 -->
<g id="node6" class="node">
<title>Node11</title>
<g id="a_node6"><a xlink:title=" ">
<polygon fill="none" stroke="#bfbfbf" points="247.5,-84 247.5,-103 409.5,-103 409.5,-84 247.5,-84"/>
<text text-anchor="middle" x="328.5" y="-91" font-family="Helvetica,sans-Serif" font-size="10.00">Map&lt; Class&lt;?&gt;, Class&lt;?&gt; &gt;</text>
</a>
</g>
</g>
<!-- Node11&#45;&gt;Node6 -->
<g id="edge5" class="edge">
<title>Node11&#45;&gt;Node6</title>
<path fill="none" stroke="#9a32cd" stroke-dasharray="5,2" d="M310.28,-77.28C293.94,-63.64 270.17,-43.78 254.29,-30.52"/>
<polygon fill="#9a32cd" stroke="#9a32cd" points="308.14,-80.06 318.06,-83.78 312.63,-74.69 308.14,-80.06"/>
<text text-anchor="middle" x="326.5" y="-52" font-family="Helvetica,sans-Serif" font-size="10.00"> primitiveTypes</text>
</g>
<!-- Node12 -->
<g id="node7" class="node">
<title>Node12</title>
<g id="a_node7"><a xlink:title=" ">
<polygon fill="none" stroke="#bfbfbf" points="309.5,-162 309.5,-181 347.5,-181 347.5,-162 309.5,-162"/>
<text text-anchor="middle" x="328.5" y="-169" font-family="Helvetica,sans-Serif" font-size="10.00">Map</text>
</a>
</g>
</g>
<!-- Node12&#45;&gt;Node11 -->
<g id="edge6" class="edge">
<title>Node12&#45;&gt;Node11</title>
<path fill="none" stroke="orange" stroke-dasharray="5,2" d="M328.5,-151.72C328.5,-136.2 328.5,-114.86 328.5,-103.12"/>
<polygon fill="orange" stroke="orange" points="325,-151.78 328.5,-161.78 332,-151.78 325,-151.78"/>
<text text-anchor="middle" x="392.5" y="-130" font-family="Helvetica,sans-Serif" font-size="10.00"> &lt; Class&lt;?&gt;, Class&lt;?&gt; &gt;</text>
</g>
</g>
</svg>
