<?xml version="1.0" encoding="UTF-8" standalone="no"?>
<!DOCTYPE svg PUBLIC "-//W3C//DTD SVG 1.1//EN"
 "http://www.w3.org/Graphics/SVG/1.1/DTD/svg11.dtd">
<!-- Generated by graphviz version 2.43.0 (0)
 -->
<!-- Title: fiftyone.ipintelligence.engine.onpremise.flowelements.IPIntelligenceDataHashDefault Pages: 1 -->
<svg width="1095pt" height="119pt"
 viewBox="0.00 0.00 1095.00 118.50" xmlns="http://www.w3.org/2000/svg" xmlns:xlink="http://www.w3.org/1999/xlink">
<g id="graph0" class="graph" transform="scale(1 1) rotate(0) translate(4 114.5)">
<title>fiftyone.ipintelligence.engine.onpremise.flowelements.IPIntelligenceDataHashDefault</title>
<!-- Node0 -->
<g id="node1" class="node">
<title>Node0</title>
<g id="a_node1"><a xlink:title="Internal implementation of the IPIntelligenceDataHash interface.">
<polygon fill="#bfbfbf" stroke="black" points="802,-33 802,-63 1087,-63 1087,-33 802,-33"/>
<text text-anchor="start" x="810" y="-51" font-family="Helvetica,sans-Serif" font-size="10.00">fiftyone.ipintelligence.engine.onpremise.flowelements.</text>
<text text-anchor="middle" x="944.5" y="-40" font-family="Helvetica,sans-Serif" font-size="10.00">IPIntelligenceDataHashDefault</text>
</a>
</g>
</g>
<!-- Node1 -->
<g id="node2" class="node">
<title>Node1</title>
<g id="a_node2"><a xlink:href="classfiftyone_1_1ipintelligence_1_1shared_1_1_i_p_intelligence_data_base_on_premise.html" target="_top" xlink:title="Base class used for all 51Degrees on&#45;premise IP Intelligence results classes.">
<polygon fill="none" stroke="black" points="583,-79 583,-109 766,-109 766,-79 583,-79"/>
<text text-anchor="start" x="591" y="-97" font-family="Helvetica,sans-Serif" font-size="10.00">fiftyone.ipintelligence.shared.</text>
<text text-anchor="middle" x="674.5" y="-86" font-family="Helvetica,sans-Serif" font-size="10.00">IPIntelligenceDataBaseOnPremise</text>
</a>
</g>
</g>
<!-- Node1&#45;&gt;Node0 -->
<g id="edge1" class="edge">
<title>Node1&#45;&gt;Node0</title>
<path fill="none" stroke="midnightblue" d="M773.14,-77.24C800.25,-72.59 829.51,-67.56 856.01,-63.02"/>
<polygon fill="midnightblue" stroke="midnightblue" points="772.52,-73.8 763.25,-78.94 773.7,-80.7 772.52,-73.8"/>
</g>
<!-- Node2 -->
<g id="node3" class="node">
<title>Node2</title>
<g id="a_node3"><a xlink:href="classfiftyone_1_1ipintelligence_1_1shared_1_1_i_p_intelligence_data_base.html" target="_top" xlink:title=" ">
<polygon fill="none" stroke="black" points="346,-80 346,-110 507,-110 507,-80 346,-80"/>
<text text-anchor="start" x="354" y="-98" font-family="Helvetica,sans-Serif" font-size="10.00">fiftyone.ipintelligence.shared.</text>
<text text-anchor="middle" x="426.5" y="-87" font-family="Helvetica,sans-Serif" font-size="10.00">IPIntelligenceDataBase</text>
</a>
</g>
</g>
<!-- Node2&#45;&gt;Node1 -->
<g id="edge2" class="edge">
<title>Node2&#45;&gt;Node1</title>
<path fill="none" stroke="midnightblue" d="M517.06,-94.64C538.44,-94.55 561.28,-94.46 582.71,-94.37"/>
<polygon fill="midnightblue" stroke="midnightblue" points="517.02,-91.14 507.03,-94.68 517.04,-98.14 517.02,-91.14"/>
</g>
<!-- Node3 -->
<g id="node4" class="node">
<title>Node3</title>
<g id="a_node4"><a xlink:title=" ">
<polygon fill="none" stroke="#bfbfbf" points="141,-85.5 141,-104.5 238,-104.5 238,-85.5 141,-85.5"/>
<text text-anchor="middle" x="189.5" y="-92.5" font-family="Helvetica,sans-Serif" font-size="10.00">AspectDataBase</text>
</a>
</g>
</g>
<!-- Node3&#45;&gt;Node2 -->
<g id="edge3" class="edge">
<title>Node3&#45;&gt;Node2</title>
<path fill="none" stroke="midnightblue" d="M248.14,-95C277.48,-95 313.63,-95 345.62,-95"/>
<polygon fill="midnightblue" stroke="midnightblue" points="248.06,-91.5 238.06,-95 248.06,-98.5 248.06,-91.5"/>
</g>
<!-- Node4 -->
<g id="node5" class="node">
<title>Node4</title>
<g id="a_node5"><a xlink:href="interfacefiftyone_1_1ipintelligence_1_1shared_1_1_i_p_intelligence_data.html" target="_top" xlink:title="Interface exposing typed accessors for properties related to an IP.">
<polygon fill="none" stroke="black" points="109,-34 109,-64 270,-64 270,-34 109,-34"/>
<text text-anchor="start" x="117" y="-52" font-family="Helvetica,sans-Serif" font-size="10.00">fiftyone.ipintelligence.shared.</text>
<text text-anchor="middle" x="189.5" y="-41" font-family="Helvetica,sans-Serif" font-size="10.00">IPIntelligenceData</text>
</a>
</g>
</g>
<!-- Node4&#45;&gt;Node2 -->
<g id="edge4" class="edge">
<title>Node4&#45;&gt;Node2</title>
<path fill="none" stroke="midnightblue" d="M277.37,-66C300.79,-70.59 325.96,-75.51 348.78,-79.98"/>
<polygon fill="midnightblue" stroke="midnightblue" points="277.93,-62.55 267.45,-64.06 276.59,-69.42 277.93,-62.55"/>
</g>
<!-- Node6 -->
<g id="node7" class="node">
<title>Node6</title>
<g id="a_node7"><a xlink:href="interfacefiftyone_1_1ipintelligence_1_1engine_1_1onpremise_1_1data_1_1_i_p_intelligence_data_hash.html" target="_top" xlink:title="On&#45;premise specific interface for IPIntelligenceData.">
<polygon fill="none" stroke="black" points="306,-31 306,-61 547,-61 547,-31 306,-31"/>
<text text-anchor="start" x="314" y="-49" font-family="Helvetica,sans-Serif" font-size="10.00">fiftyone.ipintelligence.engine.onpremise.data.</text>
<text text-anchor="middle" x="426.5" y="-38" font-family="Helvetica,sans-Serif" font-size="10.00">IPIntelligenceDataHash</text>
</a>
</g>
</g>
<!-- Node4&#45;&gt;Node6 -->
<g id="edge7" class="edge">
<title>Node4&#45;&gt;Node6</title>
<path fill="none" stroke="midnightblue" d="M280.23,-47.85C288.66,-47.75 297.3,-47.64 305.95,-47.53"/>
<polygon fill="midnightblue" stroke="midnightblue" points="280.01,-44.36 270.06,-47.98 280.1,-51.36 280.01,-44.36"/>
</g>
<!-- Node5 -->
<g id="node6" class="node">
<title>Node5</title>
<g id="a_node6"><a xlink:title=" ">
<polygon fill="none" stroke="#bfbfbf" points="0,-39.5 0,-58.5 73,-58.5 73,-39.5 0,-39.5"/>
<text text-anchor="middle" x="36.5" y="-46.5" font-family="Helvetica,sans-Serif" font-size="10.00">AspectData</text>
</a>
</g>
</g>
<!-- Node5&#45;&gt;Node4 -->
<g id="edge5" class="edge">
<title>Node5&#45;&gt;Node4</title>
<path fill="none" stroke="midnightblue" d="M83.55,-49C91.63,-49 100.24,-49 108.92,-49"/>
<polygon fill="midnightblue" stroke="midnightblue" points="83.28,-45.5 73.28,-49 83.28,-52.5 83.28,-45.5"/>
</g>
<!-- Node6&#45;&gt;Node0 -->
<g id="edge6" class="edge">
<title>Node6&#45;&gt;Node0</title>
<path fill="none" stroke="midnightblue" d="M557.54,-46.5C631.92,-46.79 725.29,-47.15 801.56,-47.45"/>
<polygon fill="midnightblue" stroke="midnightblue" points="557.19,-43 547.18,-46.46 557.16,-50 557.19,-43"/>
</g>
<!-- Node7 -->
<g id="node8" class="node">
<title>Node7</title>
<g id="a_node8"><a xlink:title=" ">
<polygon fill="none" stroke="#bfbfbf" points="631,-0.5 631,-19.5 718,-19.5 718,-0.5 631,-0.5"/>
<text text-anchor="middle" x="674.5" y="-7.5" font-family="Helvetica,sans-Serif" font-size="10.00">AutoCloseable</text>
</a>
</g>
</g>
<!-- Node7&#45;&gt;Node0 -->
<g id="edge8" class="edge">
<title>Node7&#45;&gt;Node0</title>
<path fill="none" stroke="midnightblue" d="M728.45,-17.51C759.6,-21.93 800.12,-27.67 837.57,-32.98"/>
<polygon fill="midnightblue" stroke="midnightblue" points="728.65,-14 718.26,-16.06 727.67,-20.93 728.65,-14"/>
</g>
</g>
</svg>
