<?xml version="1.0" encoding="UTF-8" standalone="no"?>
<!DOCTYPE svg PUBLIC "-//W3C//DTD SVG 1.1//EN"
 "http://www.w3.org/Graphics/SVG/1.1/DTD/svg11.dtd">
<!-- Generated by graphviz version 2.43.0 (0)
 -->
<!-- Title: fiftyone.ipintelligence.engine.onpremise.flowelements.IPIntelligenceDataHashDefault Pages: 1 -->
<svg width="1387pt" height="122pt"
 viewBox="0.00 0.00 1387.00 121.50" xmlns="http://www.w3.org/2000/svg" xmlns:xlink="http://www.w3.org/1999/xlink">
<g id="graph0" class="graph" transform="scale(1 1) rotate(0) translate(4 117.5)">
<title>fiftyone.ipintelligence.engine.onpremise.flowelements.IPIntelligenceDataHashDefault</title>
<!-- Node8 -->
<g id="node1" class="node">
<title>Node8</title>
<g id="a_node1"><a xlink:title="Internal implementation of the IPIntelligenceDataHash interface.">
<polygon fill="#bfbfbf" stroke="black" points="1094,-39 1094,-69 1379,-69 1379,-39 1094,-39"/>
<text text-anchor="start" x="1102" y="-57" font-family="Helvetica,sans-Serif" font-size="10.00">fiftyone.ipintelligence.engine.onpremise.flowelements.</text>
<text text-anchor="middle" x="1236.5" y="-46" font-family="Helvetica,sans-Serif" font-size="10.00">IPIntelligenceDataHashDefault</text>
</a>
</g>
</g>
<!-- Node9 -->
<g id="node2" class="node">
<title>Node9</title>
<g id="a_node2"><a xlink:href="classfiftyone_1_1ipintelligence_1_1shared_1_1_i_p_intelligence_data_base_on_premise.html" target="_top" xlink:title="Base class used for all 51Degrees on&#45;premise IP Intelligence results classes.">
<polygon fill="none" stroke="black" points="874,-39 874,-69 1057,-69 1057,-39 874,-39"/>
<text text-anchor="start" x="882" y="-57" font-family="Helvetica,sans-Serif" font-size="10.00">fiftyone.ipintelligence.shared.</text>
<text text-anchor="middle" x="965.5" y="-46" font-family="Helvetica,sans-Serif" font-size="10.00">IPIntelligenceDataBaseOnPremise</text>
</a>
</g>
</g>
<!-- Node9&#45;&gt;Node8 -->
<g id="edge1" class="edge">
<title>Node9&#45;&gt;Node8</title>
<path fill="none" stroke="midnightblue" d="M1067.35,-54C1076.08,-54 1085.02,-54 1093.99,-54"/>
<polygon fill="midnightblue" stroke="midnightblue" points="1067.2,-50.5 1057.2,-54 1067.2,-57.5 1067.2,-50.5"/>
</g>
<!-- Node10 -->
<g id="node3" class="node">
<title>Node10</title>
<g id="a_node3"><a xlink:href="classfiftyone_1_1ipintelligence_1_1shared_1_1_i_p_intelligence_data_base.html" target="_top" xlink:title=" ">
<polygon fill="none" stroke="black" points="435.5,-39 435.5,-69 596.5,-69 596.5,-39 435.5,-39"/>
<text text-anchor="start" x="443.5" y="-57" font-family="Helvetica,sans-Serif" font-size="10.00">fiftyone.ipintelligence.shared.</text>
<text text-anchor="middle" x="516" y="-46" font-family="Helvetica,sans-Serif" font-size="10.00">IPIntelligenceDataBase</text>
</a>
</g>
</g>
<!-- Node10&#45;&gt;Node9 -->
<g id="edge2" class="edge">
<title>Node10&#45;&gt;Node9</title>
<path fill="none" stroke="midnightblue" d="M606.99,-54C684.6,-54 796.14,-54 873.92,-54"/>
<polygon fill="midnightblue" stroke="midnightblue" points="606.75,-50.5 596.75,-54 606.75,-57.5 606.75,-50.5"/>
</g>
<!-- Node11 -->
<g id="node4" class="node">
<title>Node11</title>
<g id="a_node4"><a xlink:title=" ">
<polygon fill="none" stroke="#bfbfbf" points="142,-38.5 142,-57.5 239,-57.5 239,-38.5 142,-38.5"/>
<text text-anchor="middle" x="190.5" y="-45.5" font-family="Helvetica,sans-Serif" font-size="10.00">AspectDataBase</text>
</a>
</g>
</g>
<!-- Node11&#45;&gt;Node10 -->
<g id="edge3" class="edge">
<title>Node11&#45;&gt;Node10</title>
<path fill="none" stroke="midnightblue" d="M249.26,-49.07C301.12,-50.03 377.72,-51.45 435.38,-52.52"/>
<polygon fill="midnightblue" stroke="midnightblue" points="249.3,-45.57 239.23,-48.89 249.17,-52.57 249.3,-45.57"/>
</g>
<!-- Node12 -->
<g id="node5" class="node">
<title>Node12</title>
<g id="a_node5"><a xlink:href="interfacefiftyone_1_1ipintelligence_1_1shared_1_1_i_p_intelligence_data.html" target="_top" xlink:title="Interface exposing typed accessors for properties related to an IP.">
<polygon fill="none" stroke="black" points="110,-80 110,-110 271,-110 271,-80 110,-80"/>
<text text-anchor="start" x="118" y="-98" font-family="Helvetica,sans-Serif" font-size="10.00">fiftyone.ipintelligence.shared.</text>
<text text-anchor="middle" x="190.5" y="-87" font-family="Helvetica,sans-Serif" font-size="10.00">IPIntelligenceData</text>
</a>
</g>
</g>
<!-- Node12&#45;&gt;Node10 -->
<g id="edge4" class="edge">
<title>Node12&#45;&gt;Node10</title>
<path fill="none" stroke="midnightblue" d="M281.2,-83.63C329.58,-77.5 388.76,-70 435.48,-64.08"/>
<polygon fill="midnightblue" stroke="midnightblue" points="280.53,-80.19 271.05,-84.92 281.41,-87.13 280.53,-80.19"/>
</g>
<!-- Node16 -->
<g id="node9" class="node">
<title>Node16</title>
<g id="a_node9"><a xlink:href="interfacefiftyone_1_1ipintelligence_1_1engine_1_1onpremise_1_1data_1_1_i_p_intelligence_data_hash.html" target="_top" xlink:title="Hash specific interface for IPIntelligenceData.">
<polygon fill="none" stroke="black" points="615,-83 615,-113 856,-113 856,-83 615,-83"/>
<text text-anchor="start" x="623" y="-101" font-family="Helvetica,sans-Serif" font-size="10.00">fiftyone.ipintelligence.engine.onpremise.data.</text>
<text text-anchor="middle" x="735.5" y="-90" font-family="Helvetica,sans-Serif" font-size="10.00">IPIntelligenceDataHash</text>
</a>
</g>
</g>
<!-- Node12&#45;&gt;Node16 -->
<g id="edge9" class="edge">
<title>Node12&#45;&gt;Node16</title>
<path fill="none" stroke="midnightblue" d="M281.07,-95.49C372.24,-96 514.1,-96.78 614.85,-97.34"/>
<polygon fill="midnightblue" stroke="midnightblue" points="281.06,-91.99 271.04,-95.44 281.02,-98.99 281.06,-91.99"/>
</g>
<!-- Node13 -->
<g id="node6" class="node">
<title>Node13</title>
<g id="a_node6"><a xlink:title=" ">
<polygon fill="none" stroke="#bfbfbf" points="0,-85.5 0,-104.5 73,-104.5 73,-85.5 0,-85.5"/>
<text text-anchor="middle" x="36.5" y="-92.5" font-family="Helvetica,sans-Serif" font-size="10.00">AspectData</text>
</a>
</g>
</g>
<!-- Node13&#45;&gt;Node12 -->
<g id="edge5" class="edge">
<title>Node13&#45;&gt;Node12</title>
<path fill="none" stroke="midnightblue" d="M83.17,-95C91.68,-95 100.79,-95 109.97,-95"/>
<polygon fill="midnightblue" stroke="midnightblue" points="83.14,-91.5 73.14,-95 83.14,-98.5 83.14,-91.5"/>
</g>
<!-- Node14 -->
<g id="node7" class="node">
<title>Node14</title>
<g id="a_node7"><a xlink:title=" ">
<polygon fill="none" stroke="#bfbfbf" points="435,-0.5 435,-19.5 597,-19.5 597,-0.5 435,-0.5"/>
<text text-anchor="middle" x="516" y="-7.5" font-family="Helvetica,sans-Serif" font-size="10.00">Map&lt; Class&lt;?&gt;, Class&lt;?&gt; &gt;</text>
</a>
</g>
</g>
<!-- Node14&#45;&gt;Node9 -->
<g id="edge6" class="edge">
<title>Node14&#45;&gt;Node9</title>
<path fill="none" stroke="#9a32cd" stroke-dasharray="5,2" d="M607.56,-16.46C675.91,-21.65 771.97,-29.6 856,-39 861.86,-39.66 867.89,-40.37 873.96,-41.12"/>
<polygon fill="#9a32cd" stroke="#9a32cd" points="607.49,-12.94 597.25,-15.68 606.96,-19.92 607.49,-12.94"/>
<text text-anchor="middle" x="735.5" y="-42" font-family="Helvetica,sans-Serif" font-size="10.00"> primitiveTypes</text>
</g>
<!-- Node15 -->
<g id="node8" class="node">
<title>Node15</title>
<g id="a_node8"><a xlink:title=" ">
<polygon fill="none" stroke="#bfbfbf" points="171.5,-0.5 171.5,-19.5 209.5,-19.5 209.5,-0.5 171.5,-0.5"/>
<text text-anchor="middle" x="190.5" y="-7.5" font-family="Helvetica,sans-Serif" font-size="10.00">Map</text>
</a>
</g>
</g>
<!-- Node15&#45;&gt;Node14 -->
<g id="edge7" class="edge">
<title>Node15&#45;&gt;Node14</title>
<path fill="none" stroke="orange" stroke-dasharray="5,2" d="M220,-10C267.58,-10 364.86,-10 434.71,-10"/>
<polygon fill="orange" stroke="orange" points="219.82,-6.5 209.82,-10 219.82,-13.5 219.82,-6.5"/>
<text text-anchor="middle" x="353" y="-13" font-family="Helvetica,sans-Serif" font-size="10.00"> &lt; Class&lt;?&gt;, Class&lt;?&gt; &gt;</text>
</g>
<!-- Node16&#45;&gt;Node8 -->
<g id="edge8" class="edge">
<title>Node16&#45;&gt;Node8</title>
<path fill="none" stroke="midnightblue" d="M866.17,-92.67C924.58,-89.67 994.34,-85.23 1057,-79 1083.47,-76.37 1112.04,-72.73 1138.4,-69.04"/>
<polygon fill="midnightblue" stroke="midnightblue" points="865.97,-89.18 856.16,-93.18 866.32,-96.17 865.97,-89.18"/>
</g>
<!-- Node17 -->
<g id="node10" class="node">
<title>Node17</title>
<g id="a_node10"><a xlink:title=" ">
<polygon fill="none" stroke="#bfbfbf" points="922,-0.5 922,-19.5 1009,-19.5 1009,-0.5 922,-0.5"/>
<text text-anchor="middle" x="965.5" y="-7.5" font-family="Helvetica,sans-Serif" font-size="10.00">AutoCloseable</text>
</a>
</g>
</g>
<!-- Node17&#45;&gt;Node8 -->
<g id="edge10" class="edge">
<title>Node17&#45;&gt;Node8</title>
<path fill="none" stroke="midnightblue" d="M1019.24,-18.63C1054.66,-24.42 1102.26,-32.21 1143.79,-39"/>
<polygon fill="midnightblue" stroke="midnightblue" points="1019.56,-15.13 1009.12,-16.97 1018.43,-22.04 1019.56,-15.13"/>
</g>
</g>
</svg>
