<?xml version="1.0" encoding="UTF-8" standalone="no"?>
<!DOCTYPE svg PUBLIC "-//W3C//DTD SVG 1.1//EN"
 "http://www.w3.org/Graphics/SVG/1.1/DTD/svg11.dtd">
<!-- Generated by graphviz version 2.43.0 (0)
 -->
<!-- Title: fiftyone.ipintelligence.cloud.flowelements.IPIntelligenceCloudEngine Pages: 1 -->
<svg width="802pt" height="149pt"
 viewBox="0.00 0.00 802.00 149.00" xmlns="http://www.w3.org/2000/svg" xmlns:xlink="http://www.w3.org/1999/xlink">
<g id="graph0" class="graph" transform="scale(1 1) rotate(0) translate(4 145)">
<title>fiftyone.ipintelligence.cloud.flowelements.IPIntelligenceCloudEngine</title>
<!-- Node2 -->
<g id="node1" class="node">
<title>Node2</title>
<g id="a_node1"><a xlink:title="Engine that takes the JSON response from the CloudRequestEngine and uses it populate a IPIntelligence...">
<polygon fill="#bfbfbf" stroke="black" points="570,-44.5 570,-74.5 794,-74.5 794,-44.5 570,-44.5"/>
<text text-anchor="start" x="578" y="-62.5" font-family="Helvetica,sans-Serif" font-size="10.00">fiftyone.ipintelligence.cloud.flowelements.</text>
<text text-anchor="middle" x="682" y="-51.5" font-family="Helvetica,sans-Serif" font-size="10.00">IPIntelligenceCloudEngine</text>
</a>
</g>
</g>
<!-- Node3 -->
<g id="node2" class="node">
<title>Node3</title>
<g id="a_node2"><a xlink:title=" ">
<polygon fill="none" stroke="#bfbfbf" points="218,-88.5 218,-140.5 431,-140.5 431,-88.5 218,-88.5"/>
<text text-anchor="start" x="226" y="-128.5" font-family="Helvetica,sans-Serif" font-size="10.00">fiftyone::pipeline</text>
<text text-anchor="start" x="226" y="-117.5" font-family="Helvetica,sans-Serif" font-size="10.00">::cloudrequestengine</text>
<text text-anchor="start" x="226" y="-106.5" font-family="Helvetica,sans-Serif" font-size="10.00">::flowelements::CloudAspect</text>
<text text-anchor="middle" x="324.5" y="-95.5" font-family="Helvetica,sans-Serif" font-size="10.00">EngineBase&lt; IPIntelligenceDataCloud &gt;</text>
</a>
</g>
</g>
<!-- Node3&#45;&gt;Node2 -->
<g id="edge1" class="edge">
<title>Node3&#45;&gt;Node2</title>
<path fill="none" stroke="midnightblue" d="M441.24,-96.59C487.35,-89.46 539.82,-81.34 583.9,-74.52"/>
<polygon fill="midnightblue" stroke="midnightblue" points="440.55,-93.16 431.2,-98.15 441.62,-100.08 440.55,-93.16"/>
</g>
<!-- Node4 -->
<g id="node3" class="node">
<title>Node4</title>
<g id="a_node3"><a xlink:title=" ">
<polygon fill="none" stroke="#bfbfbf" points="266,-50 266,-69 383,-69 383,-50 266,-50"/>
<text text-anchor="middle" x="324.5" y="-57" font-family="Helvetica,sans-Serif" font-size="10.00">CloudRequestEngine</text>
</a>
</g>
</g>
<!-- Node4&#45;&gt;Node2 -->
<g id="edge2" class="edge">
<title>Node4&#45;&gt;Node2</title>
<path fill="none" stroke="#9a32cd" stroke-dasharray="5,2" d="M393.03,-59.5C442.87,-59.5 511.81,-59.5 569.74,-59.5"/>
<polygon fill="#9a32cd" stroke="#9a32cd" points="393.01,-56 383.01,-59.5 393.01,-63 393.01,-56"/>
<text text-anchor="middle" x="500.5" y="-62.5" font-family="Helvetica,sans-Serif" font-size="10.00"> cloudRequestEngine</text>
</g>
<!-- Node5 -->
<g id="node4" class="node">
<title>Node5</title>
<g id="a_node4"><a xlink:title=" ">
<polygon fill="none" stroke="#bfbfbf" points="252.5,-0.5 252.5,-30.5 396.5,-30.5 396.5,-0.5 252.5,-0.5"/>
<text text-anchor="start" x="260.5" y="-18.5" font-family="Helvetica,sans-Serif" font-size="10.00">List&lt; AspectPropertyMeta</text>
<text text-anchor="middle" x="324.5" y="-7.5" font-family="Helvetica,sans-Serif" font-size="10.00">Data &gt;</text>
</a>
</g>
</g>
<!-- Node5&#45;&gt;Node2 -->
<g id="edge3" class="edge">
<title>Node5&#45;&gt;Node2</title>
<path fill="none" stroke="#9a32cd" stroke-dasharray="5,2" d="M406.68,-25.55C454.99,-31.53 516.97,-39.2 569.79,-45.74"/>
<polygon fill="#9a32cd" stroke="#9a32cd" points="406.94,-22.05 396.59,-24.3 406.08,-29 406.94,-22.05"/>
<text text-anchor="middle" x="500.5" y="-46.5" font-family="Helvetica,sans-Serif" font-size="10.00"> aspectProperties</text>
</g>
<!-- Node6 -->
<g id="node5" class="node">
<title>Node6</title>
<g id="a_node5"><a xlink:title=" ">
<polygon fill="none" stroke="#bfbfbf" points="0,-6 0,-25 34,-25 34,-6 0,-6"/>
<text text-anchor="middle" x="17" y="-13" font-family="Helvetica,sans-Serif" font-size="10.00">List</text>
</a>
</g>
</g>
<!-- Node6&#45;&gt;Node5 -->
<g id="edge4" class="edge">
<title>Node6&#45;&gt;Node5</title>
<path fill="none" stroke="orange" stroke-dasharray="5,2" d="M44.45,-15.5C90.3,-15.5 185.98,-15.5 252.43,-15.5"/>
<polygon fill="orange" stroke="orange" points="44.43,-12 34.43,-15.5 44.42,-19 44.43,-12"/>
<text text-anchor="middle" x="126" y="-18.5" font-family="Helvetica,sans-Serif" font-size="10.00"> &lt; AspectPropertyMetaData &gt;</text>
</g>
</g>
</svg>
