<?xml version="1.0" encoding="UTF-8" standalone="no"?>
<!DOCTYPE svg PUBLIC "-//W3C//DTD SVG 1.1//EN"
 "http://www.w3.org/Graphics/SVG/1.1/DTD/svg11.dtd">
<!-- Generated by graphviz version 2.43.0 (0)
 -->
<!-- Title: fiftyone.ipintelligence.shared.IPIntelligenceDataBase Pages: 1 -->
<svg width="1056pt" height="88pt"
 viewBox="0.00 0.00 1056.00 88.00" xmlns="http://www.w3.org/2000/svg" xmlns:xlink="http://www.w3.org/1999/xlink">
<g id="graph0" class="graph" transform="scale(1 1) rotate(0) translate(4 84)">
<title>fiftyone.ipintelligence.shared.IPIntelligenceDataBase</title>
<!-- Node0 -->
<g id="node1" class="node">
<title>Node0</title>
<g id="a_node1"><a xlink:title=" ">
<polygon fill="#bfbfbf" stroke="black" points="306,-24.5 306,-54.5 467,-54.5 467,-24.5 306,-24.5"/>
<text text-anchor="start" x="314" y="-42.5" font-family="Helvetica,sans-Serif" font-size="10.00">fiftyone.ipintelligence.shared.</text>
<text text-anchor="middle" x="386.5" y="-31.5" font-family="Helvetica,sans-Serif" font-size="10.00">IPIntelligenceDataBase</text>
</a>
</g>
</g>
<!-- Node4 -->
<g id="node5" class="node">
<title>Node4</title>
<g id="a_node5"><a xlink:href="classfiftyone_1_1ipintelligence_1_1cloud_1_1flowelements_1_1_i_p_intelligence_data_cloud_internal.html" target="_top" xlink:title="Internal implementation of the IPIntelligenceDataCloud interface.">
<polygon fill="none" stroke="black" points="503,-49.5 503,-79.5 727,-79.5 727,-49.5 503,-49.5"/>
<text text-anchor="start" x="511" y="-67.5" font-family="Helvetica,sans-Serif" font-size="10.00">fiftyone.ipintelligence.cloud.flowelements.</text>
<text text-anchor="middle" x="615" y="-56.5" font-family="Helvetica,sans-Serif" font-size="10.00">IPIntelligenceDataCloudInternal</text>
</a>
</g>
</g>
<!-- Node0&#45;&gt;Node4 -->
<g id="edge4" class="edge">
<title>Node0&#45;&gt;Node4</title>
<path fill="none" stroke="midnightblue" d="M477.21,-49.4C485.64,-50.33 494.25,-51.28 502.84,-52.23"/>
<polygon fill="midnightblue" stroke="midnightblue" points="477.36,-45.9 467.04,-48.28 476.59,-52.85 477.36,-45.9"/>
</g>
<!-- Node5 -->
<g id="node6" class="node">
<title>Node5</title>
<g id="a_node6"><a xlink:href="classfiftyone_1_1ipintelligence_1_1shared_1_1_i_p_intelligence_data_base_on_premise.html" target="_top" xlink:title="Base class used for all 51Degrees on&#45;premise IP Intelligence results classes.">
<polygon fill="none" stroke="black" points="523.5,-0.5 523.5,-30.5 706.5,-30.5 706.5,-0.5 523.5,-0.5"/>
<text text-anchor="start" x="531.5" y="-18.5" font-family="Helvetica,sans-Serif" font-size="10.00">fiftyone.ipintelligence.shared.</text>
<text text-anchor="middle" x="615" y="-7.5" font-family="Helvetica,sans-Serif" font-size="10.00">IPIntelligenceDataBaseOnPremise</text>
</a>
</g>
</g>
<!-- Node0&#45;&gt;Node5 -->
<g id="edge5" class="edge">
<title>Node0&#45;&gt;Node5</title>
<path fill="none" stroke="midnightblue" d="M477.41,-29.97C492.55,-28.37 508.27,-26.7 523.43,-25.1"/>
<polygon fill="midnightblue" stroke="midnightblue" points="476.61,-26.54 467.04,-31.07 477.35,-33.5 476.61,-26.54"/>
</g>
<!-- Node1 -->
<g id="node2" class="node">
<title>Node1</title>
<g id="a_node2"><a xlink:title=" ">
<polygon fill="none" stroke="#bfbfbf" points="141,-52 141,-71 238,-71 238,-52 141,-52"/>
<text text-anchor="middle" x="189.5" y="-59" font-family="Helvetica,sans-Serif" font-size="10.00">AspectDataBase</text>
</a>
</g>
</g>
<!-- Node1&#45;&gt;Node0 -->
<g id="edge1" class="edge">
<title>Node1&#45;&gt;Node0</title>
<path fill="none" stroke="midnightblue" d="M248.23,-54.99C266.22,-52.96 286.39,-50.68 305.62,-48.51"/>
<polygon fill="midnightblue" stroke="midnightblue" points="247.75,-51.52 238.2,-56.12 248.53,-58.47 247.75,-51.52"/>
</g>
<!-- Node2 -->
<g id="node3" class="node">
<title>Node2</title>
<g id="a_node3"><a xlink:href="interfacefiftyone_1_1ipintelligence_1_1shared_1_1_i_p_intelligence_data.html" target="_top" xlink:title="Interface exposing typed accessors for properties related to an IP.">
<polygon fill="none" stroke="black" points="109,-2.5 109,-32.5 270,-32.5 270,-2.5 109,-2.5"/>
<text text-anchor="start" x="117" y="-20.5" font-family="Helvetica,sans-Serif" font-size="10.00">fiftyone.ipintelligence.shared.</text>
<text text-anchor="middle" x="189.5" y="-9.5" font-family="Helvetica,sans-Serif" font-size="10.00">IPIntelligenceData</text>
</a>
</g>
</g>
<!-- Node2&#45;&gt;Node0 -->
<g id="edge2" class="edge">
<title>Node2&#45;&gt;Node0</title>
<path fill="none" stroke="midnightblue" d="M280.12,-27.61C288.7,-28.58 297.36,-29.56 305.84,-30.51"/>
<polygon fill="midnightblue" stroke="midnightblue" points="280.42,-24.12 270.1,-26.48 279.64,-31.08 280.42,-24.12"/>
</g>
<!-- Node3 -->
<g id="node4" class="node">
<title>Node3</title>
<g id="a_node4"><a xlink:title=" ">
<polygon fill="none" stroke="#bfbfbf" points="0,-8 0,-27 73,-27 73,-8 0,-8"/>
<text text-anchor="middle" x="36.5" y="-15" font-family="Helvetica,sans-Serif" font-size="10.00">AspectData</text>
</a>
</g>
</g>
<!-- Node3&#45;&gt;Node2 -->
<g id="edge3" class="edge">
<title>Node3&#45;&gt;Node2</title>
<path fill="none" stroke="midnightblue" d="M83.55,-17.5C91.63,-17.5 100.24,-17.5 108.92,-17.5"/>
<polygon fill="midnightblue" stroke="midnightblue" points="83.28,-14 73.28,-17.5 83.28,-21 83.28,-14"/>
</g>
<!-- Node6 -->
<g id="node7" class="node">
<title>Node6</title>
<g id="a_node7"><a xlink:href="classfiftyone_1_1ipintelligence_1_1engine_1_1onpremise_1_1flowelements_1_1_i_p_intelligence_data_hash_default.html" target="_top" xlink:title="Internal implementation of the IPIntelligenceDataHash interface.">
<polygon fill="none" stroke="black" points="763,-0.5 763,-30.5 1048,-30.5 1048,-0.5 763,-0.5"/>
<text text-anchor="start" x="771" y="-18.5" font-family="Helvetica,sans-Serif" font-size="10.00">fiftyone.ipintelligence.engine.onpremise.flowelements.</text>
<text text-anchor="middle" x="905.5" y="-7.5" font-family="Helvetica,sans-Serif" font-size="10.00">IPIntelligenceDataHashDefault</text>
</a>
</g>
</g>
<!-- Node5&#45;&gt;Node6 -->
<g id="edge6" class="edge">
<title>Node5&#45;&gt;Node6</title>
<path fill="none" stroke="midnightblue" d="M717.05,-15.5C731.89,-15.5 747.4,-15.5 762.87,-15.5"/>
<polygon fill="midnightblue" stroke="midnightblue" points="716.89,-12 706.89,-15.5 716.89,-19 716.89,-12"/>
</g>
</g>
</svg>
