<?xml version="1.0" encoding="UTF-8" standalone="no"?>
<!DOCTYPE svg PUBLIC "-//W3C//DTD SVG 1.1//EN"
 "http://www.w3.org/Graphics/SVG/1.1/DTD/svg11.dtd">
<!-- Generated by graphviz version 2.43.0 (0)
 -->
<!-- Title: fiftyone.ipintelligence.engine.onpremise.data.IPIntelligenceDataHash Pages: 1 -->
<svg width="876pt" height="39pt"
 viewBox="0.00 0.00 876.00 39.00" xmlns="http://www.w3.org/2000/svg" xmlns:xlink="http://www.w3.org/1999/xlink">
<g id="graph0" class="graph" transform="scale(1 1) rotate(0) translate(4 35)">
<title>fiftyone.ipintelligence.engine.onpremise.data.IPIntelligenceDataHash</title>
<!-- Node0 -->
<g id="node1" class="node">
<title>Node0</title>
<g id="a_node1"><a xlink:title="Hash specific interface for IPIntelligenceData.">
<polygon fill="#bfbfbf" stroke="black" points="306,-0.5 306,-30.5 547,-30.5 547,-0.5 306,-0.5"/>
<text text-anchor="start" x="314" y="-18.5" font-family="Helvetica,sans-Serif" font-size="10.00">fiftyone.ipintelligence.engine.onpremise.data.</text>
<text text-anchor="middle" x="426.5" y="-7.5" font-family="Helvetica,sans-Serif" font-size="10.00">IPIntelligenceDataHash</text>
</a>
</g>
</g>
<!-- Node3 -->
<g id="node4" class="node">
<title>Node3</title>
<g id="a_node4"><a xlink:href="classfiftyone_1_1ipintelligence_1_1engine_1_1onpremise_1_1flowelements_1_1_i_p_intelligence_data_hash_default.html" target="_top" xlink:title="Internal implementation of the IPIntelligenceDataHash interface.">
<polygon fill="none" stroke="black" points="583,-0.5 583,-30.5 868,-30.5 868,-0.5 583,-0.5"/>
<text text-anchor="start" x="591" y="-18.5" font-family="Helvetica,sans-Serif" font-size="10.00">fiftyone.ipintelligence.engine.onpremise.flowelements.</text>
<text text-anchor="middle" x="725.5" y="-7.5" font-family="Helvetica,sans-Serif" font-size="10.00">IPIntelligenceDataHashDefault</text>
</a>
</g>
</g>
<!-- Node0&#45;&gt;Node3 -->
<g id="edge3" class="edge">
<title>Node0&#45;&gt;Node3</title>
<path fill="none" stroke="midnightblue" d="M557.28,-15.5C565.73,-15.5 574.26,-15.5 582.76,-15.5"/>
<polygon fill="midnightblue" stroke="midnightblue" points="557.02,-12 547.02,-15.5 557.02,-19 557.02,-12"/>
</g>
<!-- Node1 -->
<g id="node2" class="node">
<title>Node1</title>
<g id="a_node2"><a xlink:href="interfacefiftyone_1_1ipintelligence_1_1shared_1_1_i_p_intelligence_data.html" target="_top" xlink:title="Interface exposing typed accessors for properties related to an IP.">
<polygon fill="none" stroke="black" points="109,-0.5 109,-30.5 270,-30.5 270,-0.5 109,-0.5"/>
<text text-anchor="start" x="117" y="-18.5" font-family="Helvetica,sans-Serif" font-size="10.00">fiftyone.ipintelligence.shared.</text>
<text text-anchor="middle" x="189.5" y="-7.5" font-family="Helvetica,sans-Serif" font-size="10.00">IPIntelligenceData</text>
</a>
</g>
</g>
<!-- Node1&#45;&gt;Node0 -->
<g id="edge1" class="edge">
<title>Node1&#45;&gt;Node0</title>
<path fill="none" stroke="midnightblue" d="M280.23,-15.5C288.66,-15.5 297.3,-15.5 305.95,-15.5"/>
<polygon fill="midnightblue" stroke="midnightblue" points="280.06,-12 270.06,-15.5 280.06,-19 280.06,-12"/>
</g>
<!-- Node2 -->
<g id="node3" class="node">
<title>Node2</title>
<g id="a_node3"><a xlink:title=" ">
<polygon fill="none" stroke="#bfbfbf" points="0,-6 0,-25 73,-25 73,-6 0,-6"/>
<text text-anchor="middle" x="36.5" y="-13" font-family="Helvetica,sans-Serif" font-size="10.00">AspectData</text>
</a>
</g>
</g>
<!-- Node2&#45;&gt;Node1 -->
<g id="edge2" class="edge">
<title>Node2&#45;&gt;Node1</title>
<path fill="none" stroke="midnightblue" d="M83.55,-15.5C91.63,-15.5 100.24,-15.5 108.92,-15.5"/>
<polygon fill="midnightblue" stroke="midnightblue" points="83.28,-12 73.28,-15.5 83.28,-19 83.28,-12"/>
</g>
</g>
</svg>
