<?xml version="1.0" encoding="UTF-8" standalone="no"?>
<!DOCTYPE svg PUBLIC "-//W3C//DTD SVG 1.1//EN"
 "http://www.w3.org/Graphics/SVG/1.1/DTD/svg11.dtd">
<!-- Generated by graphviz version 2.43.0 (0)
 -->
<!-- Title: fiftyone.ipintelligence.engine.onpremise.data.IPIntelligenceDataHash Pages: 1 -->
<svg width="249pt" height="162pt"
 viewBox="0.00 0.00 249.00 162.00" xmlns="http://www.w3.org/2000/svg" xmlns:xlink="http://www.w3.org/1999/xlink">
<g id="graph0" class="graph" transform="scale(1 1) rotate(0) translate(4 158)">
<title>fiftyone.ipintelligence.engine.onpremise.data.IPIntelligenceDataHash</title>
<!-- Node4 -->
<g id="node1" class="node">
<title>Node4</title>
<g id="a_node1"><a xlink:title="On&#45;premise specific interface for IPIntelligenceData.">
<polygon fill="#bfbfbf" stroke="black" points="0,-0.5 0,-30.5 241,-30.5 241,-0.5 0,-0.5"/>
<text text-anchor="start" x="8" y="-18.5" font-family="Helvetica,sans-Serif" font-size="10.00">fiftyone.ipintelligence.engine.onpremise.data.</text>
<text text-anchor="middle" x="120.5" y="-7.5" font-family="Helvetica,sans-Serif" font-size="10.00">IPIntelligenceDataHash</text>
</a>
</g>
</g>
<!-- Node5 -->
<g id="node2" class="node">
<title>Node5</title>
<g id="a_node2"><a xlink:href="interfacefiftyone_1_1ipintelligence_1_1shared_1_1_i_p_intelligence_data.html" target="_top" xlink:title="Interface exposing typed accessors for properties related to an IP.">
<polygon fill="none" stroke="black" points="40,-67.5 40,-97.5 201,-97.5 201,-67.5 40,-67.5"/>
<text text-anchor="start" x="48" y="-85.5" font-family="Helvetica,sans-Serif" font-size="10.00">fiftyone.ipintelligence.shared.</text>
<text text-anchor="middle" x="120.5" y="-74.5" font-family="Helvetica,sans-Serif" font-size="10.00">IPIntelligenceData</text>
</a>
</g>
</g>
<!-- Node5&#45;&gt;Node4 -->
<g id="edge1" class="edge">
<title>Node5&#45;&gt;Node4</title>
<path fill="none" stroke="midnightblue" d="M120.5,-57.11C120.5,-48.15 120.5,-38.32 120.5,-30.58"/>
<polygon fill="midnightblue" stroke="midnightblue" points="117,-57.4 120.5,-67.4 124,-57.4 117,-57.4"/>
</g>
<!-- Node6 -->
<g id="node3" class="node">
<title>Node6</title>
<g id="a_node3"><a xlink:title=" ">
<polygon fill="none" stroke="#bfbfbf" points="84,-134.5 84,-153.5 157,-153.5 157,-134.5 84,-134.5"/>
<text text-anchor="middle" x="120.5" y="-141.5" font-family="Helvetica,sans-Serif" font-size="10.00">AspectData</text>
</a>
</g>
</g>
<!-- Node6&#45;&gt;Node5 -->
<g id="edge2" class="edge">
<title>Node6&#45;&gt;Node5</title>
<path fill="none" stroke="midnightblue" d="M120.5,-124.23C120.5,-115.59 120.5,-105.5 120.5,-97.52"/>
<polygon fill="midnightblue" stroke="midnightblue" points="117,-124.48 120.5,-134.48 124,-124.48 117,-124.48"/>
</g>
</g>
</svg>
